<?xml version="1.0" encoding="UTF-8" standalone="no"?>
<svg
   xmlns:dc="http://purl.org/dc/elements/1.1/"
   xmlns:cc="http://creativecommons.org/ns#"
   xmlns:rdf="http://www.w3.org/1999/02/22-rdf-syntax-ns#"
   xmlns:svg="http://www.w3.org/2000/svg"
   xmlns="http://www.w3.org/2000/svg"
   xmlns:sodipodi="http://sodipodi.sourceforge.net/DTD/sodipodi-0.dtd"
   xmlns:inkscape="http://www.inkscape.org/namespaces/inkscape"
   version="1.1"
   id="svg2"
   xml:space="preserve"
   width="1268.0044"
   height="1941.3334"
   viewBox="0 0 1268.0043 1941.3333"
   sodipodi:docname="electro.svg"
   inkscape:version="0.92.5 (2060ec1f9f, 2020-04-08)"><metadata
     id="metadata8"><rdf:RDF><cc:Work
         rdf:about=""><dc:format>image/svg+xml</dc:format><dc:type
           rdf:resource="http://purl.org/dc/dcmitype/StillImage" /><dc:title></dc:title></cc:Work></rdf:RDF></metadata><defs
     id="defs6"><clipPath
       clipPathUnits="userSpaceOnUse"
       id="clipPath18"><path
         d="M 0,1514 H 1016 V 0 H 0 Z"
         id="path16"
         inkscape:connector-curvature="0" /></clipPath></defs><sodipodi:namedview
     pagecolor="#ffffff"
     bordercolor="#666666"
     borderopacity="1"
     objecttolerance="10"
     gridtolerance="10"
     guidetolerance="10"
     inkscape:pageopacity="0"
     inkscape:pageshadow="2"
     inkscape:window-width="3389"
     inkscape:window-height="1380"
     id="namedview4"
     showgrid="false"
     inkscape:zoom="0.6613363"
     inkscape:cx="979.4052"
     inkscape:cy="638.15261"
     inkscape:window-x="51"
     inkscape:window-y="32"
     inkscape:window-maximized="1"
     inkscape:current-layer="g10" /><g
     id="g10"
     inkscape:groupmode="layer"
     inkscape:label="electro_pattern_2"
     transform="matrix(1.3333333,0,0,-1.3333333,-33.333333,1978.6668)"><g
       id="g12"><g
         id="g14"
         clip-path="url(#clipPath18)"><g
           id="g20"
           transform="translate(483.6562,541.4531)"><path
             d="m 0,0 c -2.539,1.445 -4.782,2.722 -7.792,4.436 0.706,-5.11 1.296,-9.375 2.051,-14.839 C -3.469,-6.287 -1.823,-3.305 0,0 m 19.581,-9.56 c -2.619,-4.827 -5.066,-9.337 -7.996,-14.739 8.634,2.796 16.02,5.189 24.311,7.873 -5.893,2.481 -10.847,4.566 -16.315,6.866 m 325.327,589.495 c 5.047,-1.334 8.628,-2.435 12.285,-3.139 0.919,-0.176 2.669,0.657 3.044,1.48 3.217,7.043 6.205,14.191 9.823,22.616 -8.62,-7.182 -16.24,-13.531 -25.152,-20.957 m 69.936,236.151 c 17.867,2.743 35.369,5.43 51.754,7.945 -14.211,1.718 -29.496,3.609 -44.802,5.319 -1.069,0.12 -2.967,-0.834 -3.318,-1.74 -1.458,-3.761 -2.471,-7.696 -3.634,-11.524 M 285.302,635.83 c -14.734,-9.412 -31.27,-19.976 -48.252,-30.823 6.538,-0.51 12.584,-1.044 18.64,-1.392 0.992,-0.057 2.373,0.405 2.997,1.126 9.389,10.853 18.68,21.789 26.615,31.089 M 2.229,-1.156 c -7.436,-8.875 -9.088,-17.331 -5.671,-28.189 11.425,1.997 17.035,7.615 20.635,20.839 C 12.21,-6.059 7.184,-3.59 2.229,-1.156 M 249.854,82.88 c 15.917,-9.887 30.194,-21.504 43.126,-36.141 1.148,10.544 -0.519,19.21 -6.957,26.76 -9.875,11.581 -23.024,10.35 -36.169,9.381 m -688.076,-205.19 c 14.686,8.983 22.034,39.379 15.616,66.934 -2.234,-1.481 -5.303,-2.382 -5.693,-3.947 -5.137,-20.656 -8.816,-41.57 -9.923,-62.987 m 66.566,842.393 c -18.996,8.216 -51.536,0.335 -64.136,-15.552 18.316,0 35.88,-0.028 53.443,0.068 1.062,0.006 2.594,0.719 3.099,1.578 2.671,4.547 5.083,9.246 7.594,13.906 m 787.824,-72.4 c -34.534,-13.12 -64.449,-32.831 -90.565,-59.425 2.395,-0.984 4.168,-1.474 5.694,-2.379 8.38,-4.966 15.354,-4.661 22.203,3.437 7.219,8.536 18.4,12.807 24.901,22.588 4.28,6.44 9.727,12.277 15.416,17.56 6.96,6.465 14.72,12.068 22.351,18.219 M -12.272,29.648 c 1.117,-5.806 2.774,-11.894 3.302,-18.078 0.342,-4.014 2.175,-5.93 5.365,-7.46 11.192,-5.368 22.406,-10.693 33.513,-16.233 5.74,-2.863 11.267,-3.501 17.525,-1.357 7.378,2.527 15.074,4.122 22.541,6.096 C 55.717,-1.974 41.38,2.708 27.709,8.867 14.032,15.028 1.019,22.665 -12.272,29.648 M 289.166,19.063 c 1.143,2.686 2.388,4.567 2.73,6.6 1.235,7.35 4.242,14.972 -1.899,21.661 -11.069,12.057 -23.438,22.537 -37.28,31.345 -5.524,3.516 -11.067,5.237 -17.704,5.004 -12.463,-0.438 -24.953,-0.118 -37.432,-0.136 -1.497,-0.002 -2.994,-0.136 -4.492,-0.208 40.073,-9.017 71.907,-30.032 96.077,-64.266 m -48.833,686.903 c 32.797,15.656 89.739,97.567 98.734,141.607 -4.786,1.599 -9.61,3.228 -14.45,4.807 -0.596,0.194 -1.277,0.125 -2.44,0.222 C 303.87,798.746 278.859,748.575 240.333,705.966 M -19.474,60.234 c 1.921,-7.899 3.917,-14.854 5.215,-21.937 0.738,-4.026 2.868,-6.242 6.11,-8.293 C 16.935,14.131 43.798,2.35 72.466,-5.285 c 2.263,-0.603 4.856,-0.514 7.203,-0.15 7.68,1.19 15.295,2.797 22.975,3.981 10.519,1.62 21.074,3 31.614,4.483 C 77.451,6.452 26.356,25.175 -19.474,60.234 M 341,579.958 c -0.889,0.635 -1.36,1.135 -1.938,1.362 -35.994,14.13 -73.289,21.837 -111.987,22.165 -27.636,0.234 -55.275,0.056 -82.913,0.061 -1.709,10e-4 -3.418,0 -5.396,0 4.293,-11.546 14.106,-18.088 26.756,-18.122 31.801,-0.086 63.602,0.11 95.4,-0.138 13.466,-0.105 26.943,-0.771 40.383,-1.671 13.047,-0.874 26.053,-2.374 39.695,-3.657 M -23.333,-37.938 c 5.048,2.024 9.558,4 14.191,5.629 2.866,1.008 3.794,2.592 3.361,5.578 -2.357,16.248 -4.096,32.601 -6.959,48.757 -6.284,35.474 -17.094,69.618 -31.724,102.542 -0.591,1.33 -1.254,3.088 -2.38,3.649 -7.917,3.941 -15.964,7.62 -24.868,11.805 28.317,-56.43 44.28,-115.093 48.379,-177.96 M -162.77,-126.89 c 4.652,3.952 9.542,8.499 14.86,12.474 3.059,2.287 4.046,5.028 4.109,8.484 0.12,6.492 0.171,12.985 0.357,19.474 1.175,40.897 -2.428,81.195 -15.232,120.309 -3.053,9.324 -6.526,18.511 -10.044,28.432 -4.101,-4.342 -7.253,-7.987 -10.746,-11.271 -2.478,-2.33 -2.777,-4.305 -1.564,-7.611 12.192,-33.228 19.359,-67.476 19.329,-102.977 -0.019,-22.531 -0.693,-45.061 -1.069,-67.314 m 8.233,206.446 c -4.82,-5.827 -8.918,-10.781 -13.276,-16.048 24.364,-55.009 28.989,-113.18 25.315,-173.314 6.182,4.74 11.743,8.878 17.12,13.243 0.962,0.78 1.676,2.508 1.644,3.778 -0.536,21.267 -0.613,42.57 -2.001,63.786 -1.758,26.881 -8.367,52.882 -17.104,78.302 -3.415,9.933 -7.559,19.617 -11.698,30.253 m 32.881,-173.497 c 5.901,4.042 11.039,7.353 15.897,11.035 1.176,0.89 2.071,3.03 2.005,4.548 -0.887,20.586 -0.882,41.289 -3.241,61.714 -3.926,34.002 -13.489,66.696 -26.997,98.178 -2.299,5.359 -4.912,10.581 -7.545,16.218 -3.611,-4.951 -6.667,-9.29 -9.891,-13.5 -1.644,-2.147 -1.897,-3.888 -0.699,-6.591 20.138,-45.436 30.231,-93.051 30.464,-142.75 0.044,-9.294 0.007,-18.589 0.007,-28.852 m -61.719,140.436 c -4.133,-3.836 -7.116,-6.956 -10.465,-9.616 -3.435,-2.729 -4.187,-5.418 -2.643,-9.749 8.504,-23.863 13.528,-48.6 14.598,-73.819 1.471,-34.676 1.892,-69.431 -6.991,-104.861 7.922,7.576 14.91,14.147 21.718,20.899 0.935,0.927 1.27,2.73 1.389,4.169 0.82,9.929 1.804,19.858 2.187,29.808 1.34,34.792 0.474,69.463 -8.172,103.444 -3.326,13.07 -7.551,25.912 -11.621,39.725 m 54.07,70.916 c -1.755,-2.866 -2.731,-5.229 -4.361,-6.986 -6.449,-6.952 -7.158,-14.058 -1.627,-21.934 1.677,-2.389 2.498,-5.387 3.668,-8.125 20.814,-48.726 30.225,-99.693 29.951,-152.561 -0.013,-2.418 -0.002,-4.835 -0.002,-7.991 5.506,3.42 10.405,6.16 14.918,9.434 1.532,1.112 3.026,3.615 2.942,5.407 -0.692,14.77 -1.442,29.551 -2.782,44.273 -2.44,26.812 -8.668,52.852 -17.051,78.397 -6.714,20.459 -15.099,40.2 -25.656,60.086 m -90.744,-303.027 c 9.649,10.514 18.651,20.265 27.55,30.109 0.934,1.033 1.59,2.561 1.819,3.95 2.376,14.373 5.734,28.692 6.71,43.167 2.251,33.382 2.262,66.821 -4.777,99.784 -2.813,13.171 -6.605,26.135 -10.236,40.308 -5.889,-4.923 -10.656,-8.907 -15.556,-13.003 11.371,-33.279 14.087,-67.512 13.675,-102.218 -0.415,-34.898 -6.072,-68.774 -19.185,-102.097 m 102.174,324.268 c -3.259,-6.04 -6.185,-10.864 -8.454,-15.979 -0.839,-1.893 -0.85,-4.782 -0.018,-6.683 4.841,-11.05 10.474,-21.765 15.052,-32.917 17.27,-42.071 27.036,-85.833 28.712,-131.342 0.231,-6.271 0.627,-12.536 0.98,-19.469 5.749,3.253 11.113,6.13 16.261,9.351 0.882,0.552 1.294,2.617 1.164,3.908 -2.178,21.624 -3.412,43.415 -6.993,64.81 -5.618,33.571 -16.361,65.76 -30.744,96.644 -4.86,10.436 -10.346,20.581 -15.96,31.677 m 13.497,19.338 c 37.858,-63.709 57.964,-131.538 61.756,-204.814 5.657,2.586 10.785,4.792 15.743,7.33 0.873,0.446 1.575,2.345 1.445,3.467 -1.958,16.798 -3.518,33.669 -6.25,50.345 -7.111,43.402 -21.516,84.466 -41.098,123.766 -0.726,1.457 -1.536,3.253 -2.822,3.989 -9.129,5.225 -18.393,10.215 -28.774,15.917 M -61.29,-56.361 c 4.17,2.131 8.617,4.637 13.265,6.687 2.699,1.19 3.683,2.781 3.395,5.636 -1.437,14.207 -2.154,28.517 -4.279,42.618 -6.809,45.172 -20.398,88.29 -40.946,129.125 -5.492,10.912 -11.662,21.483 -18.075,33.227 -2.686,-6.074 -4.46,-11.077 -7.047,-15.616 -2.025,-3.552 -1.561,-6.141 0.351,-9.538 23.442,-41.664 39.076,-86.169 46.724,-133.307 3.131,-19.3 4.428,-38.897 6.612,-58.832 m 228.5,698.531 c 95.7,36.864 158.883,103.33 191.732,199.866 -6.247,1.709 -11.87,3.247 -17.608,4.816 -0.789,-2.137 -1.397,-3.662 -1.92,-5.215 -16.716,-49.728 -44.587,-92.075 -84.091,-126.643 -12.501,-10.94 -25.362,-21.468 -38.014,-32.235 -3.167,-2.696 -6.018,-5.773 -9.264,-8.362 C 194.821,663.854 181.501,653.431 167.21,642.17 M 216.728,5.413 c -14.709,12.086 -31.637,17.382 -50.129,18.106 -17.27,0.676 -34.635,0.398 -51.793,2.153 -38.277,3.914 -73.473,17.239 -105.331,38.657 -14.116,9.49 -27.072,20.705 -39.923,30.649 2.671,-8.312 5.56,-17.861 8.876,-27.26 0.928,-2.631 2.623,-5.464 4.795,-7.115 C 29.657,25.286 81.961,6.405 140.424,5.48 165.853,5.078 191.293,5.413 216.728,5.413 M 30.33,100.751 c 25.43,-17.538 53.437,-29.07 84.093,-32.97 15.934,-2.026 32.165,-2.041 48.273,-2.303 29.24,-0.477 55.923,-8.366 79.552,-25.876 12.267,-9.091 22.5,-20.136 31.691,-33.583 4.022,2.951 7.871,5.652 11.575,8.539 2.211,1.723 2.107,3.621 0.383,5.967 -29.566,40.265 -69.337,61.322 -119.192,62.928 -18.602,0.6 -37.146,0.42 -55.743,2.769 -27.14,3.426 -53.968,8.048 -80.632,14.529 m 103.558,523.053 c -4.336,-2.091 -8.313,-4.504 -12.616,-5.949 -4.667,-1.567 -5.348,-4.418 -4.772,-8.708 3.562,-26.543 25.356,-44.608 51.09,-43.994 30.791,0.736 61.616,0.374 92.422,0.112 25.775,-0.219 51.52,-1.273 77.02,-5.564 5.821,-0.979 11.69,-1.673 17.569,-2.503 1.459,6.044 2.791,11.563 4.137,17.141 -1.092,0.432 -1.832,0.879 -2.626,1.017 -27.205,4.733 -54.619,7.698 -82.22,8.009 -36.301,0.408 -72.608,0.148 -108.913,0.184 -14.693,0.014 -27.166,10.392 -29.694,25.016 -0.836,4.836 -0.922,9.802 -1.397,15.239 m 220.259,-69.067 c -0.465,0.3 -0.717,0.58 -1.011,0.635 -26.525,4.903 -53.304,7.592 -80.246,7.906 -35.978,0.419 -71.964,0.126 -107.946,0.283 -17.956,0.077 -31.827,8.001 -41.948,22.71 -5.779,8.398 -7.844,18.007 -8.711,28.223 -2.619,-1.099 -4.744,-2 -6.876,-2.883 -11.623,-4.816 -11.673,-4.83 -7.995,-17.097 8.425,-28.104 34.061,-48.743 62.731,-49.034 32.814,-0.334 65.647,0.401 98.445,-0.387 22.741,-0.547 45.449,-2.738 68.147,-4.502 7.874,-0.612 15.675,-2.148 23.955,-3.325 0.512,6.142 0.988,11.852 1.455,17.471 M -19.134,116.612 c 1.424,-1.634 2.298,-2.758 3.293,-3.762 28.274,-28.57 61.762,-48.268 100.413,-59.328 24.719,-7.073 49.961,-8.541 75.49,-8.3 8.914,0.084 17.982,-0.712 26.736,-2.384 23.56,-4.501 43.362,-16.043 59.553,-33.769 1.207,-1.32 2.65,-3.327 4.067,-3.4 6.848,-0.357 13.725,-0.161 21.6,-0.161 -18.515,26.951 -42.23,44.24 -72.206,53.086 -17.996,5.31 -36.424,5.069 -54.879,4.962 -32.421,-0.19 -63.153,7.127 -92.011,21.742 -10.323,5.227 -19.451,13 -30.023,17.504 -13.267,5.652 -27.457,9.137 -42.033,13.81 m 371.505,418.561 c -32.671,6.192 -65.257,8.43 -98.049,8.368 -30.653,-0.059 -61.31,-0.318 -91.957,0.115 -20.351,0.288 -37.127,9.109 -50.485,24.312 -9.651,10.984 -14.773,24.105 -16.886,38.685 -5.795,-2.044 -11.205,-3.952 -17.723,-6.252 2.035,-6.585 3.437,-13.237 6.087,-19.349 14.727,-33.968 40.364,-53.607 77.639,-55.353 26.764,-1.254 53.629,-0.528 80.448,-0.373 37.118,0.214 74.09,-1.201 110.926,-8.698 z M 246.962,5.424 c -6.955,8.705 -14.647,14.918 -22.963,20.395 -17.961,11.83 -37.821,17.636 -59.241,17.642 -21.478,0.006 -42.943,-0.178 -64.095,4.295 -47.15,9.97 -87.632,32.114 -120.89,67.041 -6.319,6.636 -14.801,7.655 -23.227,12.321 1.896,-4.454 3.208,-7.476 4.471,-10.519 1.331,-3.207 2.379,-6.557 3.982,-9.618 1.663,-3.172 3.379,-6.539 5.867,-9.024 C 0.32,68.521 34.964,47.685 74.837,35.518 c 28.314,-8.639 57.32,-10.83 86.725,-10.206 21.239,0.45 40.583,-5.534 57.762,-18.236 1.226,-0.907 2.959,-1.546 4.472,-1.58 7.327,-0.161 14.659,-0.072 23.166,-0.072 M 188.915,605.24 c 13.648,0 26.958,-0.073 40.265,0.077 2.044,0.023 4.263,0.718 6.087,1.692 68.271,36.446 120.231,89.064 155.912,157.717 10.758,20.697 19.331,42.289 25.973,65.188 -4.073,0.648 -7.964,0.747 -11.477,1.95 -5.315,1.818 -6.882,-0.201 -8.508,-5.115 C 367.863,738.217 312.796,670.803 231.023,625.654 217.5,618.188 203.204,612.122 188.915,605.24 M 58.638,595.08 c 3.939,-21.561 13.127,-40.161 27.968,-55.778 19.574,-20.597 43.54,-32.858 72.098,-33.591 34.133,-0.877 68.303,-0.236 102.456,-0.466 23.965,-0.161 47.869,-1.406 71.542,-5.535 6.449,-1.125 12.929,-2.075 19.932,-3.19 0,5.654 0.176,10.796 -0.141,15.908 -0.067,1.084 -1.795,2.754 -2.981,2.978 -25.014,4.734 -50.283,7.537 -75.719,7.854 -36.814,0.458 -73.643,-0.137 -110.457,0.374 -29.679,0.412 -53.278,13.442 -71.029,37.091 -8.689,11.574 -13.648,24.82 -16.411,39.288 -5.934,-1.696 -11.456,-3.274 -17.258,-4.933 m 78.366,18.069 c 58.136,13.262 108.956,40.259 152.221,81.131 41.968,39.648 71.28,87.323 88.637,143.005 -6.022,1.51 -11.549,2.897 -17.361,4.356 -0.806,-2.357 -1.479,-4.367 -2.18,-6.367 -30.647,-87.393 -88.109,-150.076 -172.904,-187.534 -13.591,-6.004 -27.889,-10.131 -40.93,-17.772 -7.018,-4.112 -9.301,-8.288 -8.055,-15.522 0.027,-0.159 0.13,-0.305 0.572,-1.297 m 0.791,-7.8 c 14.439,0 28.425,-0.056 42.41,0.066 1.921,0.017 3.903,0.742 5.743,1.441 63.132,23.964 115.206,62.74 155.919,116.656 25,33.107 43.323,69.611 55.503,109.636 -4.698,1.05 -9.233,1.879 -13.655,3.116 -3.122,0.873 -4.426,-0.188 -5.356,-3.108 -15.627,-49.059 -41.203,-92.199 -76.989,-129.269 -38.745,-40.134 -84.689,-68.629 -137.894,-85.365 -8.922,-2.806 -17.987,-5.158 -27.162,-7.771 0.527,-1.921 0.955,-3.483 1.481,-5.402 m 214.86,-129.048 c 0,4.94 -0.269,9.445 0.087,13.901 0.279,3.491 -1.311,4.675 -4.314,5.226 -26.025,4.778 -52.263,7.707 -78.715,7.955 -34.142,0.319 -68.29,0.065 -102.435,0.162 -5.47,0.016 -10.99,0.208 -16.402,0.945 -31.214,4.252 -56.022,19.353 -74.704,44.643 -9.99,13.526 -16.059,28.758 -19.415,45.502 -5.97,-1.402 -11.665,-2.739 -17.582,-4.128 6.576,-31.783 21.739,-57.785 46.753,-77.62 23.559,-18.682 50.539,-27.814 80.733,-27.608 31.479,0.214 62.968,0.467 94.438,-0.11 18.758,-0.344 37.521,-1.888 56.218,-3.59 11.667,-1.061 23.216,-3.421 35.338,-5.278 m 1.232,-20.909 c -0.369,5.298 -0.82,10.055 -0.987,14.823 -0.094,2.684 -0.75,3.898 -3.808,4.539 -27.757,5.818 -55.842,8.484 -84.14,8.709 -33.657,0.268 -67.318,0.008 -100.977,0.116 -5.969,0.019 -12.057,0.086 -17.885,1.198 -53.949,10.295 -89.54,41.409 -105.849,94.108 -1.157,3.739 -2.085,7.548 -3.123,11.336 -5.997,-1.061 -11.504,-2.036 -17.162,-3.037 0.209,-1.776 0.238,-3.263 0.571,-4.68 8.431,-35.894 26.723,-65.567 56.317,-87.795 23.682,-17.787 50.391,-28.336 80.121,-29.004 34.976,-0.787 69.98,-0.217 104.97,-0.461 24.635,-0.172 49.172,-1.759 73.416,-6.532 6.109,-1.203 12.259,-2.202 18.536,-3.32 m 5.089,-21.656 c -1.278,5.075 -2.985,9.67 -3.458,14.389 -0.423,4.216 -2.515,5.533 -6.104,6.276 -29.057,6.011 -58.42,9.058 -88.081,9.129 -31.992,0.076 -63.984,-0.109 -95.975,0.104 -8.108,0.054 -16.324,0.539 -24.296,1.935 -47.247,8.272 -82.665,33.614 -106.56,75.076 -8.224,14.27 -13.41,29.742 -16.655,46.229 -5.988,-0.676 -11.661,-1.317 -17.369,-1.962 0,-1.593 -0.176,-2.612 0.024,-3.55 9.342,-43.728 31.662,-79.213 68.086,-105.295 26.964,-19.307 57.201,-30.01 90.517,-30.484 34.15,-0.486 68.311,-0.104 102.465,-0.337 22.297,-0.152 44.534,-1.423 66.511,-5.561 10.209,-1.923 20.403,-3.926 30.895,-5.949 M -19.559,583.479 c 0,-1.351 -0.137,-2.203 0.019,-2.998 9.88,-50.089 34.957,-90.704 76.474,-120.574 30.247,-21.762 64.229,-33.708 101.637,-34.322 33.816,-0.555 67.647,-0.129 101.471,-0.283 27.481,-0.126 54.768,-2.34 81.615,-8.58 9.113,-2.118 18.2,-4.339 27.422,-6.542 -2.646,5.846 -5.485,11.291 -7.552,17.015 -1.111,3.076 -2.795,4.487 -5.737,5.192 -27.536,6.6 -55.46,10.541 -83.758,10.887 -36.152,0.444 -72.315,0.002 -108.469,0.392 -9.908,0.107 -19.974,0.961 -29.668,2.94 -57.895,11.822 -99.22,44.921 -123.568,98.659 -5.609,12.379 -8.939,25.789 -13.545,39.394 -4.663,-0.337 -10.266,-0.742 -16.341,-1.18 m -19.939,-0.403 c -0.05,-0.692 -0.214,-1.359 -0.122,-1.988 0.215,-1.474 0.561,-2.927 0.838,-4.392 10.952,-57.832 40.783,-103.484 89.32,-136.565 32.431,-22.104 68.586,-33.939 107.939,-34.572 34.315,-0.553 68.645,-0.175 102.967,-0.288 35.743,-0.117 70.826,-4.772 104.964,-15.654 7.879,-2.511 15.695,-5.219 23.145,-7.705 -5.654,7.623 -11.275,15.429 -17.191,23.004 -1.283,1.643 -3.471,2.97 -5.502,3.581 -31.988,9.636 -64.767,14.492 -98.119,14.87 -35.819,0.407 -71.651,-0.213 -107.466,0.365 -12.364,0.2 -25.03,1.302 -36.983,4.294 -70.435,17.634 -117.309,61.108 -140.03,130.215 -2.706,8.232 -4.407,16.794 -6.588,25.259 -5.379,0 -10.537,0.011 -15.695,-0.017 -0.468,-0.003 -0.936,-0.252 -1.477,-0.407 m -62.158,359.471 h 2 c 10.358,-12.047 20.701,-24.108 31.109,-36.111 0.678,-0.782 1.846,-1.587 2.802,-1.607 6.539,-0.141 13.083,-0.074 20.814,-0.074 -1.965,2.729 -2.941,4.212 -4.042,5.595 -8.548,10.743 -17.119,21.467 -25.683,32.197 h 2 c 9.413,-11.764 18.82,-23.534 28.259,-35.277 0.586,-0.73 1.428,-1.791 2.152,-1.791 6.512,-0.002 13.024,0.199 19.536,0.34 l 0.641,1.694 c -8.863,11.678 -17.725,23.356 -26.588,35.034 h 3 c 0.11,-0.471 0.085,-1.042 0.349,-1.399 7.906,-10.681 15.786,-21.383 23.86,-31.936 0.739,-0.966 3.075,-1.715 4.118,-1.271 4.626,1.97 9.051,4.413 13.798,6.81 -1.09,1.696 -1.594,2.536 -2.15,3.339 -5.654,8.156 -11.316,16.306 -16.975,24.457 h 2 c 6.075,-8.611 12.151,-17.223 18.913,-26.807 1.787,2.208 3.244,4.199 4.895,6.015 7.257,7.983 7.283,7.969 1.14,16.815 -0.94,1.355 -1.963,2.653 -2.948,3.977 h 3 c 1.903,-3.084 3.806,-6.168 6.194,-10.036 1.536,4.051 2.671,7.043 3.806,10.036 h 1 c -0.203,-1.291 -0.244,-2.633 -0.633,-3.864 -6.683,-21.133 -25.841,-35.416 -47.957,-35.09 -37.053,0.548 -73.776,-1.97 -109.717,-11.493 -89.37,-23.68 -160.277,-73.737 -212.529,-149.979 -8.761,-12.783 -16.267,-26.426 -24.779,-40.371 5.933,-1.089 10.54,-1.694 15.012,-2.832 3.377,-0.86 5.04,0.151 6.645,3.182 14.628,27.635 32.888,52.712 54.517,75.244 42.508,44.286 93.159,75.428 151.968,93.224 32.826,9.933 66.44,14.367 100.666,14.678 9.327,0.085 18.794,-0.674 27.954,0.644 29.922,4.306 51.932,26.282 57.853,56.657 h 2 c -0.238,-0.796 -0.552,-1.576 -0.701,-2.388 -6,-32.731 -36.564,-58.028 -71.665,-56.776 -30.658,1.094 -61.205,-1.14 -91.137,-8.124 -93.749,-21.873 -166.521,-73.66 -218.598,-154.551 -4.692,-7.288 -8.797,-14.954 -13.366,-22.771 6.564,-1.586 12.304,-2.974 18.196,-4.397 0.945,1.623 1.785,3.029 2.591,4.455 11.311,20.037 24.507,38.769 39.767,55.964 33.858,38.156 74.299,67.199 121.54,86.592 35.285,14.486 71.953,22.789 110.144,24.105 16.289,0.562 32.703,0.171 48.835,2.097 36.379,4.345 68.968,39.115 72.394,75.794 h 2 c -0.306,-1.462 -0.62,-2.922 -0.918,-4.385 -7.202,-35.403 -27.842,-59.22 -62.13,-70.483 -8.349,-2.742 -17.57,-3.972 -26.385,-3.952 -34.192,0.079 -68.069,-1.959 -101.282,-10.814 -74.126,-19.764 -134.171,-60.415 -180.067,-121.791 -8.979,-12.007 -16.712,-24.946 -25.293,-37.866 6.908,-2.09 12.553,-3.798 18.286,-5.532 0.919,1.482 1.725,2.726 2.476,4.002 32.205,54.706 76.888,95.904 134.034,123.508 28.871,13.946 59.279,23.332 91.08,27.03 19.288,2.242 38.879,1.746 58.292,3.094 11.03,0.766 22.357,1.432 32.89,4.448 44.402,12.715 72.772,51.473 77.017,92.741 h 2 C 75.35,937.34 74.572,932.081 73.328,926.935 61.606,878.46 17.553,843.828 -32.207,843.447 c -17.133,-0.131 -34.3,-0.644 -51.379,-1.94 -29.123,-2.208 -57.083,-9.648 -84.107,-20.659 -50.379,-20.526 -92.375,-52.268 -125.886,-95.026 -9.471,-12.085 -17.613,-25.213 -26.741,-38.406 6.699,-2.48 12.19,-4.514 17.521,-6.488 0.529,0.498 0.82,0.687 0.996,0.952 0.734,1.106 1.45,2.225 2.144,3.356 38.91,63.453 94.035,106.074 165.065,128.051 32.402,10.025 65.791,12.305 99.522,12.17 10.378,-0.042 21.008,0.952 31.107,3.277 54.673,12.583 93.374,59.465 98.309,113.813 h 2 C 95.36,936.833 94.535,931.085 93.369,925.409 81.527,867.719 28.321,824.13 -30.596,823.458 c -17.458,-0.199 -34.954,-0.616 -52.349,-1.991 -29.643,-2.344 -57.935,-10.431 -85.101,-22.406 -38.921,-17.156 -72.338,-41.885 -100.34,-73.858 -12.15,-13.873 -22.899,-28.802 -32.219,-45.12 5.645,-2.44 11.031,-4.77 16.494,-7.132 1.345,2.072 2.441,3.72 3.499,5.393 33.214,52.534 78.99,89.609 137.298,111.037 30.049,11.043 61.255,15.826 93.233,15.871 15.78,0.022 31.517,-0.237 47.164,3.1 64.164,13.684 112.681,69.009 117.261,134.195 h 2 c -1.332,-7.843 -2.046,-15.852 -4.095,-23.503 C 96.618,860.685 59.726,823.341 1.261,807.479 c -17.617,-4.78 -35.606,-3.929 -53.553,-4.035 -23.689,-0.139 -47.06,-2.968 -69.905,-9.279 -57.11,-15.778 -103.976,-47.126 -140.636,-93.603 -7.032,-8.915 -13.111,-18.582 -19.893,-28.279 6.116,-3.057 11.23,-5.614 16.492,-8.245 1.09,1.685 1.904,2.918 2.694,4.167 24.081,38.109 55.997,67.748 95.931,88.708 35.934,18.861 74.295,27.762 114.785,28.405 15.61,0.247 31.416,0.067 46.768,2.44 45.018,6.958 80.79,29.899 107.873,66.323 19.506,26.233 29.652,56.047 32.527,88.466 h 2 c -0.72,-5.418 -1.219,-10.876 -2.196,-16.247 -7.983,-43.899 -28.825,-80.256 -64.299,-107.64 -29.264,-22.591 -62.517,-34.684 -99.603,-35.041 -22.639,-0.218 -45.293,0.028 -67.617,-4.263 -50.991,-9.801 -94.917,-32.999 -131.407,-70.09 -13.704,-13.93 -25.545,-29.266 -35.728,-46.22 5.185,-2.999 10.17,-5.881 15.391,-8.901 1.284,1.866 2.444,3.459 3.509,5.113 28.445,44.137 67.502,74.95 116.772,92.877 29.287,10.656 59.701,13.338 90.639,13.34 13.893,10e-4 28.151,0.445 41.618,3.472 69.581,15.637 116.486,57.567 140.947,124.547 5.782,15.833 8.151,32.396 9.974,49.053 h 1 c -1.333,-10.331 -1.628,-20.923 -4.164,-30.95 -18.154,-71.783 -62.597,-118.99 -133.424,-141.095 -22.219,-6.934 -45.101,-7.277 -68.093,-7.043 -20.004,0.205 -39.802,-2.151 -59.159,-7.256 -47.377,-12.493 -86.758,-37.749 -118.115,-75.323 -7.189,-8.614 -13.326,-18.106 -20.17,-27.5 5.63,-3.724 10.429,-6.899 15.094,-9.984 0.483,0.323 0.661,0.385 0.749,0.51 0.76,1.082 1.541,2.153 2.248,3.27 26.513,41.843 63.358,70.672 110.009,86.99 25.721,8.997 52.391,11.607 79.489,11.095 17.328,-0.327 34.545,0.83 51.497,4.742 47.304,10.917 86.382,35.134 116.819,72.932 21.689,26.936 35.875,57.512 42.177,91.581 1.717,9.275 2.715,18.684 4.043,28.031 h 1 c -1.665,-12.296 -2.141,-24.896 -5.187,-36.839 C 150.933,830.353 104.417,779.547 31.052,753.627 4.991,744.419 -22.127,743 -49.536,743.418 c -29.543,0.452 -58.087,-5.108 -85.238,-16.98 -40.859,-17.863 -72.643,-46.107 -96.038,-84.355 4.903,-3.629 9.647,-7.14 14.325,-10.602 0.498,0.481 0.783,0.677 0.963,0.945 0.646,0.962 1.265,1.943 1.879,2.926 22.896,36.644 54.653,62.536 94.943,77.953 25.043,9.582 51.152,12.499 77.791,11.954 18.001,-0.368 35.974,0.504 53.551,4.556 75.979,17.518 130.243,61.932 162.37,132.892 11.425,25.235 17.85,51.935 18.334,79.84 h 2 c -1.053,-10.061 -1.362,-20.266 -3.282,-30.158 C 180.575,853.239 151.246,804.876 102.88,768.687 63.578,739.28 19.131,724.104 -30.057,723.586 c -21.786,-0.23 -43.571,0.174 -64.961,-5.038 -52.19,-12.717 -91.767,-42.47 -119.849,-88.374 4.743,-3.944 9.299,-7.731 14.098,-11.721 0.653,1.049 1.174,1.862 1.671,2.691 21.032,35.046 50.618,59.798 88.98,74.026 23.787,8.822 48.513,10.644 73.585,10.129 19.027,-0.391 37.908,1.294 56.419,5.656 68.37,16.11 121.249,54.063 157.926,113.946 22.043,35.99 34.079,75.292 35.532,117.646 h 2 c -1.773,-13.981 -2.46,-28.203 -5.507,-41.9 C 196.305,839.8 164.826,790.062 114.805,752.682 72.371,720.971 24.412,704.636 -28.682,703.481 c -16.956,-0.369 -34.1,0.011 -50.804,-2.402 -33.723,-4.872 -63.054,-19.866 -88.005,-43.152 -11.867,-11.076 -21.817,-23.738 -29.932,-37.792 -0.693,-1.199 -0.819,-3.764 -0.037,-4.598 3.599,-3.842 7.613,-7.295 11.694,-11.088 0.737,1.243 1.331,2.203 1.885,3.185 18.35,32.575 45.049,55.446 80.033,68.554 17.45,6.538 35.638,9.29 54.21,9.043 25.511,-0.337 50.918,0.539 75.815,6.617 73.137,17.855 129.639,58.895 168.867,123.089 23.863,39.05 36.53,81.772 38.3,127.61 h 2 C 233.039,925.98 232.288,909.016 228.177,892.91 201.855,789.793 137.466,722.771 35.306,692.469 c -27.846,-8.26 -56.523,-9.621 -85.382,-9.01 -15.028,0.318 -29.862,-1.654 -44.242,-6.028 -38.853,-11.817 -68.173,-35.622 -88.029,-71.019 -0.777,-1.386 -1.086,-4.323 -0.261,-5.098 3.977,-3.737 8.419,-6.981 12.695,-10.4 -0.219,0.187 0.598,1.799 1.438,3.398 15.466,29.448 38.621,50.29 69.656,62.372 15.844,6.168 32.327,8.752 49.218,8.548 26.164,-0.315 52.231,0.584 77.813,6.557 72.997,17.044 131.302,56.171 174.089,117.721 31.91,45.904 48.555,97.179 51.043,153.037 h 2 c -2.06,-16.287 -2.885,-32.845 -6.39,-48.815 C 232.767,819.982 194.394,760.35 132.685,716.445 83.694,681.589 28.899,663.942 -31.324,663.554 c -16.132,-0.104 -32.314,0.627 -48.214,-3.012 -41.993,-9.609 -71.543,-34.563 -90.36,-72.982 4.418,-5.257 8.625,-10.261 13.194,-15.696 0.564,1.277 0.836,1.838 1.064,2.416 11.721,29.641 32.338,50.608 61.682,62.928 17.052,7.158 35.048,8.478 53.292,8.091 22.177,-0.47 44.247,0.997 65.974,5.492 72.238,14.941 132.154,50.61 178.744,107.933 43.482,53.497 65.866,115.133 69.292,183.823 h 2 c -0.266,-1.978 -0.525,-3.958 -0.798,-5.935 -2.401,-17.397 -3.551,-35.079 -7.427,-52.142 C 251.852,817.271 217.945,760.819 165.24,716.425 107.194,667.534 39.836,643.201 -36.277,643.433 c -11.774,0.036 -23.773,0.053 -35.287,-2.028 -40.177,-7.259 -67.268,-31.009 -82.615,-68.507 -0.563,-1.377 -0.376,-3.67 0.433,-4.893 3.647,-5.511 7.645,-10.79 11.641,-16.323 0.354,0.686 0.622,1.079 0.767,1.513 0.261,0.785 0.457,1.593 0.667,2.394 8.148,31.12 27.088,52.598 57.207,64.139 11.031,4.227 22.523,5.727 34.21,5.509 32.039,-0.598 63.917,1.111 94.898,9.706 115.681,32.095 192.87,105.313 231.869,218.752 9.883,28.745 14.028,58.615 15.831,88.852 h 2 c -0.313,-1.787 -0.85,-3.568 -0.904,-5.363 -0.596,-19.815 -3.496,-39.328 -8.131,-58.556 -19.412,-80.517 -62.29,-145.612 -129.557,-194 -56.336,-40.526 -119.571,-60.757 -189.082,-61.149 -11.473,-0.065 -23.104,0.399 -34.386,-1.257 -35.893,-5.267 -65.354,-33.61 -72.779,-68.903 -0.362,-1.723 -0.863,-3.968 -0.107,-5.284 4.975,-8.66 10.277,-17.13 15.447,-25.621 0.671,8.448 0.428,16.894 2.137,24.924 7.684,36.105 35.195,57.797 72.258,57.998 14.81,0.081 29.636,0.405 44.421,1.229 27.462,1.532 54.219,7.185 80.175,16.077 88.598,30.348 154.886,87.075 198.662,169.829 21.391,40.435 33.956,83.618 37.95,129.241 0.609,6.947 1.263,13.89 1.896,20.835 h 1 C 314.403,922.194 311.53,902.177 307.4,882.308 294.488,820.193 266.793,765.482 224.437,718.339 189.595,679.558 147.925,650.177 99.802,630.026 67.161,616.357 33.175,607.806 -2.037,604.825 c -16.559,-1.401 -33.299,-0.535 -49.911,-1.491 -8.345,-0.48 -16.977,-1.642 -24.8,-4.412 -18.962,-6.714 -32.732,-19.893 -39.631,-38.779 -6.713,-18.379 -9.54,-37.279 0.885,-55.693 1.46,-2.579 2.555,-5.373 3.731,-8.105 2.035,-4.728 4.003,-9.486 5.998,-14.231 0.938,0.766 1.082,1.345 1.094,1.927 0.346,16.647 0.594,33.298 1.076,49.942 0.119,4.115 0.578,8.313 1.585,12.294 5.984,23.66 25.602,38.616 50.192,39.115 19.287,0.391 38.603,0.811 57.832,2.226 26.726,1.966 52.657,8.298 77.957,17.001 69.628,23.953 127.003,65.223 172.047,123.362 32.717,42.229 55.034,89.622 67.165,141.658 5.581,23.943 9.371,48.196 9.161,72.908 h 2 c 0.527,-3.072 -1.644,-6.704 3.475,-8.514 50.015,-17.689 101.357,-27.99 154.525,-28.486 v -2 c -54.254,0.955 -106.769,11.26 -158.023,29.958 -0.364,-3.548 -0.717,-6.51 -0.958,-9.482 -0.239,-2.94 -0.364,-5.89 -0.568,-9.313 51.62,-18.223 104.658,-28.678 159.549,-29.163 v -2 c -54.755,0.917 -107.857,11.022 -159.675,29.291 -0.811,-4.977 -1.461,-9.399 -2.272,-13.79 -0.619,-3.353 0.44,-5.094 3.929,-6.041 19.292,-5.234 38.35,-11.458 57.82,-15.884 32.921,-7.484 66.347,-11.625 100.198,-11.576 v -2 c -55.669,0.913 -109.729,10.897 -162.597,29.151 -0.507,-2.524 -0.97,-4.762 -1.402,-7.006 -0.438,-2.276 -0.5,-4.696 -1.345,-6.806 -1.396,-3.488 0.04,-4.504 3.172,-5.549 29.76,-9.925 60.092,-17.358 91.147,-21.933 23.563,-3.472 47.179,-5.982 71.025,-5.857 v -2 c -56.948,0.881 -112.299,10.971 -166.498,29.337 -1.526,-6.064 -2.952,-11.733 -4.41,-17.527 0.931,-0.357 1.524,-0.611 2.134,-0.816 31.426,-10.555 63.488,-18.375 96.328,-23.119 24.044,-3.472 48.128,-5.994 72.446,-5.875 v -2 c -24.7,-1.531 -49.343,-3.582 -73.535,-9.119 -2.108,-0.482 -4.849,-1.873 -5.672,-3.611 -2.59,-5.471 -4.405,-11.308 -6.718,-17.534 9.625,1.955 18.79,3.99 28.022,5.655 19.14,3.454 38.384,5.994 57.903,5.609 v -1 c -2.976,-0.302 -5.947,-0.773 -8.93,-0.88 -25.432,-0.913 -50.396,-4.943 -75.036,-11.149 -1.212,-0.306 -2.906,-0.819 -3.347,-1.732 -3.156,-6.546 -6.045,-13.221 -9.129,-20.099 12.153,2.885 23.628,5.959 35.253,8.29 20.176,4.045 40.517,6.949 61.189,6.57 v -1 c -11.255,-0.996 -22.53,-1.812 -33.761,-3.026 -20.96,-2.266 -41.487,-6.718 -61.619,-12.964 -1.185,-0.369 -2.663,-1.037 -3.213,-2.013 -3.999,-7.1 -7.794,-14.314 -11.86,-21.874 9.437,2.989 18.16,6.077 27.062,8.511 27.287,7.463 54.968,12.471 83.391,12.366 v -1 c -13.043,-1.317 -26.115,-2.405 -39.123,-4 -24.073,-2.952 -47.348,-9.225 -70.039,-17.701 -1.609,-0.601 -3.435,-1.564 -4.355,-2.909 -5.587,-8.169 -10.94,-16.499 -16.825,-25.467 1.611,0.635 2.596,1.038 3.59,1.413 15.154,5.708 30.072,12.182 45.517,16.948 26.389,8.142 53.488,12.755 81.235,12.716 v -1 c -12.552,-1.305 -25.146,-2.302 -37.65,-3.975 -32.6,-4.36 -63.548,-14.295 -93.132,-28.549 -1.847,-0.89 -3.469,-2.506 -4.836,-4.094 -6.509,-7.562 -12.86,-15.259 -19.338,-22.848 -2.594,-3.039 -5.332,-5.958 -8.072,-8.868 -2.608,-2.771 -5.305,-5.459 -7.963,-8.184 0.942,-0.345 1.437,-0.268 1.795,-0.006 26.854,19.675 56.301,34.267 88.027,44.126 26.397,8.203 53.373,13.415 81.169,13.398 v -1 c -2.643,-0.318 -5.29,-0.607 -7.929,-0.959 -15.936,-2.124 -32.117,-3.147 -47.761,-6.597 -57.48,-12.677 -107.294,-39.913 -149.045,-81.488 -9.705,-9.664 -18.558,-20.183 -28.572,-31.151 7.481,-1.108 13.309,-2.155 19.184,-2.708 1.432,-0.135 3.471,0.963 4.467,2.141 32.019,37.87 71.251,65.646 117.468,83.382 29.618,11.366 60.283,18.151 92.188,18.38 v -1 c -2.307,-0.298 -4.616,-0.578 -6.919,-0.898 -15.593,-2.166 -31.452,-3.185 -46.731,-6.714 -60.605,-13.999 -111.379,-44.758 -152.247,-91.736 -1.129,-1.298 -2.265,-2.59 -3.575,-4.086 1.147,-0.453 1.596,-0.695 2.074,-0.809 4.664,-1.118 9.291,-2.506 14.02,-3.173 1.885,-0.267 4.684,0.443 5.904,1.774 27.062,29.524 59.113,51.909 96.115,67.079 29.238,11.986 59.581,19.23 91.359,19.563 v -1 c -1.469,-0.256 -2.929,-0.566 -4.406,-0.759 -13.309,-1.746 -26.788,-2.653 -39.902,-5.345 -55.534,-11.396 -102.246,-38.685 -141.008,-79.848 -0.727,-0.772 -1.2,-1.783 -2.011,-3.016 5.298,-1.651 10.248,-2.955 15.004,-4.765 2.792,-1.062 4.321,-0.273 6.388,1.629 8.199,7.542 16.393,15.132 25.066,22.11 27.738,22.32 60.084,35.403 93.617,46.031 15.402,4.882 31.286,5.68 47.252,5.963 v -2 c -11.099,-0.735 -22.422,-0.307 -33.259,-2.399 -60.291,-11.638 -101.922,-61.812 -104.491,-122.076 -0.985,-23.111 -0.304,-46.3 -0.062,-69.45 0.066,-6.282 0.874,-12.633 2.063,-18.813 12.261,-63.782 68.35,-109.912 135.749,-105.262 v -2 c -10.77,0.349 -21.54,0.7 -31.616,1.027 10.143,-8.03 20.879,-16.528 31.616,-25.027 v -2 c -8.371,6.547 -16.541,13.374 -25.182,19.541 -5.726,4.087 -11.736,8.44 -18.301,10.559 -18.397,5.938 -35.351,14.148 -50.097,26.76 -1.985,1.698 -4.264,3.252 -6.668,4.231 -39.155,15.931 -79.986,24.026 -122.16,24.709 -34.989,0.566 -69.999,-0.197 -104.989,0.359 -13.385,0.212 -27.006,1.191 -40.06,3.975 -72.429,15.446 -123.445,57.664 -152.589,125.6 -6.782,15.807 -10.549,32.908 -15.963,50.245 -1.558,0 -4.528,0.011 -7.497,-0.002 -8.971,-0.037 -9.722,0.654 -7.533,-8.426 0.387,-1.607 0.615,-3.251 0.947,-4.871 13.348,-65.222 48.11,-115.852 104.368,-151.292 34.709,-21.866 72.924,-33.02 114.054,-33.494 20.329,-0.234 40.662,-0.044 60.993,-0.12 32.106,-0.12 64.226,0.835 96.123,-4.622 42.698,-7.304 82.378,-22.241 119.177,-45.047 20.01,-12.401 38.268,-27.002 55.377,-43.105 v -2 c -9.094,7.751 -17.913,15.853 -27.326,23.195 -60.577,47.255 -129.522,69.95 -206.188,69.795 -31.495,-0.063 -63.001,-0.522 -94.479,0.21 -15.357,0.357 -31.045,1.404 -45.923,4.925 -91.317,21.61 -149.344,78.407 -175.059,168.422 -2.377,8.323 -3.761,16.929 -5.654,25.624 -2.584,-0.793 -4.813,-1.402 -6.989,-2.159 -10.178,-3.542 -10.281,-3.738 -8.229,-14.009 0.357,-1.784 0.683,-3.577 1.1,-5.348 16.806,-71.363 56.138,-126.419 119.607,-163.47 35.44,-20.688 73.969,-31.679 115.139,-32.179 33.49,-0.407 66.987,-0.156 100.48,-0.233 26.174,-0.06 52.083,-2.482 77.559,-8.772 48.563,-11.989 91.877,-34.148 129.523,-67.131 9.095,-7.969 17.64,-16.563 26.439,-24.87 v -3 c -1.327,1.223 -2.749,2.358 -3.967,3.682 -13.456,14.632 -28.23,27.786 -44.322,39.449 -54.919,39.802 -116.477,58.867 -184.125,58.869 -31.833,0 -63.666,0.094 -95.498,-0.039 -18.041,-0.075 -35.901,1.603 -53.352,6.036 -95.405,24.234 -157.101,83.856 -185.711,177.854 -2.655,8.725 -4.273,17.764 -6.707,28.07 -4.534,-5.148 -8.705,-9.212 -11.976,-13.905 -1.436,-2.061 -1.946,-5.62 -1.34,-8.129 18.46,-76.488 61.582,-134.796 129.827,-174.039 37.784,-21.727 78.743,-33.19 122.403,-33.82 34.493,-0.497 69.01,0.346 103.491,-0.465 18.726,-0.44 37.693,-1.543 56.043,-5.025 64.596,-12.259 118.979,-43.208 162.762,-92.461 4.165,-4.686 8.315,-9.385 12.472,-14.077 v -3 c -0.843,0.748 -1.745,1.44 -2.521,2.253 -13.197,13.826 -25.377,28.82 -39.743,41.297 -51.839,45.023 -112.733,67.666 -181.238,69.223 -34.31,0.781 -68.652,0.321 -102.979,0.155 -21.047,-0.101 -41.865,1.918 -62.186,7.192 -91.037,23.627 -154.15,79.289 -189.254,166.494 -4.753,11.807 -7.972,24.232 -11.895,36.349 -0.182,-0.138 -0.58,-0.281 -0.683,-0.541 -5.866,-14.777 -2.902,-30.198 -3.256,-45.378 -0.014,-0.602 0.498,-1.214 0.752,-1.826 28.983,-69.918 77.418,-121.519 145.816,-154.022 33.176,-15.765 68.333,-24.904 105.033,-25.977 36.795,-1.077 73.643,-0.384 110.467,-0.464 24.024,-0.053 47.761,-2.548 71.004,-8.789 55.196,-14.824 101.46,-43.85 138.109,-87.788 8.035,-9.634 15.075,-20.097 22.574,-30.178 v -4 c -16.545,26.433 -36.491,49.878 -60.852,69.476 -47.429,38.156 -101.701,57.909 -162.406,59.292 -34.973,0.797 -69.979,0.311 -104.969,0.164 -20.039,-0.084 -39.895,1.818 -59.33,6.369 -87.038,20.378 -152.12,69.795 -194.684,148.546 -4.169,7.712 -7.737,15.75 -11.583,23.636 l -1.272,-0.112 c 0,-5.289 0.671,-10.681 -0.129,-15.847 -2.174,-14.047 3.005,-26.861 9.731,-37.638 33.473,-53.638 79.638,-93.114 137.783,-118.289 36.027,-15.599 73.663,-24.2 112.966,-24.616 34.32,-0.363 68.647,-0.124 102.971,-0.214 20.496,-0.053 40.822,-1.897 60.759,-6.823 57.734,-14.265 104.774,-44.914 140.981,-92.176 12.055,-15.736 21.596,-32.915 30.034,-50.768 v -4 c -0.86,1.548 -1.841,3.041 -2.562,4.65 -16.333,36.424 -39.849,67.328 -70.958,92.397 -44.098,35.537 -94.663,53.62 -151.095,54.782 -34.152,0.704 -68.331,0.284 -102.496,0.111 -33.858,-0.172 -66.806,5.26 -98.723,16.283 -56.521,19.519 -103.828,52.401 -141.191,99.256 -6.391,8.015 -12.336,16.385 -18.46,24.555 2.071,-9.925 4.059,-19.916 6.273,-29.857 0.986,-4.426 1.184,-9.803 3.854,-12.96 32.173,-38.037 70.96,-67.451 116.606,-87.628 39.305,-17.374 80.388,-27.106 123.425,-27.59 34.329,-0.386 68.665,-0.069 102.996,-0.216 18.15,-0.078 36.247,-1.241 53.904,-5.773 91.72,-23.546 149.266,-81.5 173.372,-172.848 2.261,-8.568 3.397,-17.435 5.055,-26.162 v -72 c -0.706,-4.373 -1.341,-8.76 -2.131,-13.117 -7.831,-43.211 -25.484,-81.803 -54.952,-114.549 -45.188,-50.215 -101.793,-75.977 -169.304,-77.246 -27.983,-0.528 -55.986,0.034 -83.978,-0.123 -26.522,-0.151 -52.738,-3.383 -78.299,-10.399 -93.775,-25.735 -163.395,-81.833 -208.687,-167.824 -18.065,-34.298 -29.195,-70.927 -33.733,-109.476 -1.146,-9.735 -1.953,-19.509 -2.916,-29.266 h -1 c 0.126,27.574 4.905,54.453 12.67,80.797 20.875,70.818 60.623,128.801 119.786,172.995 55.772,41.661 118.874,63.07 188.412,64.908 27.648,0.731 55.33,0.281 82.995,0.172 17.025,-0.067 33.885,1.175 50.493,5.054 76.264,17.816 130.06,62.909 161.615,134.303 20.763,46.977 21.974,96.441 15.023,146.243 -6.493,46.536 -26.966,87.008 -59.223,120.962 -44.39,46.725 -99.424,70.298 -163.83,71.473 -27.324,0.498 -54.67,0.462 -81.994,-0.013 -34.736,-0.603 -69.044,1.897 -102.686,11.12 -60.448,16.573 -112.027,47.84 -155.008,93.384 -3.243,3.437 -6.32,7.032 -10.169,11.33 0.702,-8.947 1.085,-16.713 2.038,-24.407 0.336,-2.713 1.405,-5.912 3.259,-7.773 31.676,-31.784 68.087,-56.718 109.405,-74.282 39.147,-16.641 79.978,-26.345 122.579,-27.151 34.654,-0.656 69.328,-0.287 103.994,-0.325 16.997,-0.018 33.868,-1.102 50.541,-4.72 48.754,-10.579 88.849,-35.325 120.022,-74.123 26.546,-33.04 41.838,-70.898 45.199,-113.236 1.886,-23.756 2.363,-47.649 -1.376,-71.251 -6.539,-41.282 -23.379,-77.966 -51.681,-108.984 -41.127,-45.074 -92.385,-68.204 -153.338,-69.391 -25.989,-0.507 -51.997,-0.126 -77.997,-0.074 -28.535,0.056 -56.706,-2.924 -84.398,-9.947 -94.801,-24.04 -166.951,-78.565 -217.067,-162.233 -21.458,-35.824 -35.759,-74.562 -42.293,-115.871 -2.558,-16.178 -3.366,-32.632 -4.971,-48.96 h -2 c 0.256,25.537 4.089,50.62 10.531,75.246 19.646,75.117 59.167,137.687 119.723,186.482 60.842,49.026 130.681,74.43 208.683,76.873 28.14,0.881 56.332,-0.028 84.49,0.467 12.919,0.227 25.947,1.021 38.694,3.029 39.931,6.292 74.812,23.709 104.347,51.088 38.62,35.801 61.375,80.05 66.467,132.667 2.712,28.026 2.874,56.145 -2.87,83.967 -9.812,47.535 -33.183,87.217 -70.215,118.436 -39.389,33.204 -85.372,48.819 -136.793,48.752 -30.667,-0.04 -61.335,0.169 -91.999,-0.063 -24.371,-0.184 -48.446,2.073 -72.311,6.98 -56.839,11.688 -107.586,36.064 -152.222,73.09 -8.77,7.274 -17.046,15.146 -25.676,22.856 0,-6.625 0.191,-13.07 -0.076,-19.497 -0.144,-3.458 0.852,-5.887 3.453,-8.218 35.55,-31.867 75.773,-55.92 120.661,-72.092 34.548,-12.447 70.209,-20.028 106.926,-20.889 36.814,-0.864 73.666,-0.001 110.49,-0.561 13.572,-0.207 27.36,-1.094 40.627,-3.766 58.571,-11.8 102.019,-44.64 130.907,-96.77 23.606,-42.6 25.888,-88.839 20.671,-135.612 -4.417,-39.597 -21.03,-74.458 -48.263,-103.805 -37.296,-40.188 -83.532,-60.777 -138.353,-61.594 -25.828,-0.384 -51.666,-0.097 -77.499,-0.057 -24.348,0.038 -48.457,-2.219 -72.369,-6.888 -65.709,-12.832 -123.506,-41.736 -173.375,-86.178 -42.101,-37.519 -73.889,-82.621 -95.257,-134.856 -16.91,-41.336 -26.631,-84.282 -27.392,-129.087 h -2 c 0.492,25.496 3.975,50.631 10.083,75.335 20.468,82.778 63.676,151.338 130.552,204.278 64.575,51.119 138.617,77.12 220.918,79.111 27.484,0.665 55.001,-0.14 82.491,0.377 13.078,0.247 26.455,0.539 39.135,3.347 68.227,15.11 115.089,55.671 140.025,120.972 13.184,34.523 13.585,70.534 9.829,106.688 -3.991,38.417 -19.06,72.42 -44.317,101.401 -37.685,43.241 -85.77,64.877 -143.13,65.416 -32.163,0.302 -64.332,0.241 -96.496,-0.008 -23.374,-0.18 -46.542,1.874 -69.418,6.317 -53.858,10.462 -103.21,31.594 -147.502,64.12 -10.523,7.728 -20.554,16.127 -31.321,24.619 0,-6.366 -0.001,-12.293 0.001,-18.22 0,-1.166 -0.285,-2.442 0.092,-3.472 0.469,-1.282 1.266,-2.633 2.304,-3.492 35.271,-29.158 74.501,-51.372 117.67,-66.529 35.598,-12.498 72.281,-20.152 109.998,-21.079 36.811,-0.905 73.663,-0.007 110.487,-0.571 13.396,-0.205 27.004,-1.158 40.097,-3.821 39.697,-8.073 72.343,-28.356 97.62,-60.059 23.502,-29.474 35.913,-63.197 37.131,-100.909 0.693,-21.46 0.828,-42.862 -4.047,-64.039 -18.051,-78.419 -85.991,-132.782 -166.27,-132.782 -25.5,0 -50.999,-0.016 -76.498,0.004 -26.346,0.021 -52.406,-2.613 -78.237,-7.865 -67.557,-13.739 -127.052,-43.722 -178.616,-89.243 -38.841,-34.29 -69.458,-75.015 -91.936,-121.755 -24.035,-49.977 -37.198,-102.633 -38.645,-158.141 h -2 c 0.955,27.119 4.436,53.888 10.927,80.261 21.456,87.172 67.033,159.175 137.285,214.905 70.933,56.269 152.412,83.363 242.835,83.795 26.498,0.127 53,-0.138 79.496,0.138 8.444,0.086 17.053,0.486 25.287,2.192 65.537,13.577 109.453,52.246 130.957,115.513 10.299,30.299 9.945,61.827 6.262,93.258 -3.976,33.935 -17.627,63.887 -40.171,89.342 -34.058,38.457 -77.282,57.382 -128.641,57.555 -32.165,0.109 -64.332,0.18 -96.496,-0.032 -23.537,-0.155 -46.877,1.954 -69.934,6.317 -56.345,10.663 -108.058,32.452 -154.676,66.012 -7.352,5.293 -14.499,10.869 -22.284,16.722 0,-6.538 0.216,-12.493 -0.085,-18.421 -0.164,-3.228 0.966,-5.215 3.451,-7.084 33.794,-25.432 70.603,-45.255 110.511,-59.222 37.674,-13.185 76.485,-21.139 116.395,-22.081 36.479,-0.863 72.993,-0.185 109.489,-0.433 8.963,-0.06 18,-0.507 26.864,-1.762 41.343,-5.849 74.564,-25.775 99.524,-59.143 17.61,-23.541 27.33,-50.167 29.154,-79.584 1.3,-20.973 1.396,-41.861 -3.015,-62.59 -14.701,-69.077 -75.677,-118.658 -146.119,-118.658 -25.499,0 -50.998,-0.047 -76.497,0.011 -36.573,0.083 -72.562,-4.38 -107.848,-14.024 -78.589,-21.476 -144.818,-62.968 -198.794,-123.863 -28.058,-31.656 -50.45,-67.074 -67.404,-105.864 -21.356,-48.861 -32.878,-99.948 -34.473,-153.26 h -2 c 1.409,32.093 5.535,63.801 14.063,94.819 25.565,92.987 76.765,168.706 154.552,225.714 71.864,52.667 153.01,78.029 242.021,78.387 25.5,0.103 51.001,-0.133 76.499,0.104 7.947,0.075 16.01,0.511 23.805,1.95 55.891,10.319 94.243,42.503 114.576,95.18 12.967,33.597 12.434,68.768 5.669,103.626 -6.349,32.713 -23.207,59.859 -48.426,81.523 -28.66,24.619 -62.273,35.879 -99.938,35.706 -31.166,-0.143 -62.333,0.086 -93.499,-0.063 -28.867,-0.138 -57.357,2.876 -85.593,8.878 -58.825,12.505 -112.156,36.952 -160.199,73.057 -0.681,0.512 -1.578,0.739 -3.535,1.623 0,-6.006 0.431,-11.19 -0.134,-16.264 -0.465,-4.176 1.232,-6.209 4.394,-8.432 32.241,-22.666 66.967,-40.474 104.141,-53.48 39.569,-13.845 80.323,-22.139 122.227,-23.151 37.312,-0.902 74.661,-0.206 111.992,-0.439 7.793,-0.049 15.674,-0.489 23.353,-1.741 45.039,-7.345 77.9,-31.689 97.927,-72.544 16.103,-32.851 16.4,-67.898 9.982,-102.881 -11.118,-60.598 -65.138,-104.572 -126.782,-104.572 -25.499,0 -50.999,-0.051 -76.499,0.013 -33.202,0.081 -65.993,-3.476 -98.331,-11.019 -69.391,-16.185 -130.869,-47.887 -184.424,-94.795 -37.51,-32.854 -68.246,-71.278 -92.28,-114.985 -33.594,-61.093 -51.105,-126.607 -53.561,-196.214 h -2 c 0.966,11.599 1.886,23.202 2.906,34.797 2.215,25.18 7.241,49.868 14.439,74.029 27.005,90.641 77.452,165.457 152.856,222.809 74.197,56.431 158.333,85.051 251.439,87.09 27.653,0.606 55.329,0.071 82.994,0.24 7.304,0.045 14.749,-0.017 21.884,1.301 48.647,8.986 82.508,36.54 100.356,82.662 11.359,29.351 10.566,60.093 5.362,90.449 -5.081,29.641 -20.301,54.135 -43.354,73.538 -24.671,20.765 -53.404,30.159 -85.467,30.099 -32.665,-0.062 -65.331,0.079 -97.996,-0.041 -29.211,-0.108 -58.078,3.14 -86.556,9.322 -56.922,12.354 -109.307,35.233 -156.863,68.993 -0.736,0.522 -1.657,0.783 -2.65,1.237 -0.579,-5.329 -0.654,-10.379 -1.805,-15.17 -0.867,-3.608 0.11,-5.415 2.969,-7.307 31.816,-21.057 65.578,-38.199 101.645,-50.715 41.81,-14.51 84.812,-23.198 129.065,-24.174 37.648,-0.83 75.327,-0.204 112.991,-0.418 6.625,-0.038 13.346,-0.484 19.849,-1.686 44.694,-8.266 73.917,-34.321 88.208,-77.363 5.571,-16.776 5.348,-34.134 4.517,-51.369 -0.538,-11.168 -1.839,-22.61 -4.978,-33.288 -13.716,-46.66 -56.523,-77.925 -105.156,-78.072 -34.32,-0.105 -68.647,-0.173 -102.955,-0.971 -30.648,-0.714 -60.725,-6.085 -90.268,-14.088 -87.253,-23.636 -160.703,-69.679 -220.311,-137.494 -37.185,-42.306 -65.069,-90.275 -84.244,-143.3 -16.497,-45.62 -24.855,-92.752 -26.877,-141.11 h -2 c 0.315,2.462 0.844,4.918 0.914,7.387 0.791,27.98 4.803,55.539 11.111,82.761 15.908,68.654 46.177,130.345 90.74,184.902 35.109,42.983 76.933,78.178 125.242,105.53 65.204,36.917 135.345,56.321 210.239,58.018 28.985,0.657 57.994,0.224 86.991,0.401 5.473,0.033 10.982,0.285 16.406,0.977 43.603,5.566 80.056,38.738 90.451,81.564 3.875,15.967 2.886,32.075 2.847,48.166 -0.07,28.353 -10.422,52.875 -29.698,73.339 -21.213,22.52 -47.824,33.595 -78.706,33.879 -29.495,0.27 -58.997,0.246 -88.493,0.003 -29.509,-0.245 -58.775,1.71 -87.876,6.893 -55.124,9.819 -106.49,29.36 -154.268,58.452 -6.312,3.844 -12.516,7.865 -19.179,12.061 -1.238,-6.765 -2.357,-12.872 -3.51,-19.173 1.839,-1.228 3.602,-2.454 5.413,-3.605 34.153,-21.731 70.453,-38.927 109.06,-51.107 42.664,-13.459 86.317,-21.194 131.147,-21.432 35.664,-0.188 71.33,-0.03 106.994,-0.236 39.243,-0.226 73.083,-23.851 85.928,-59.835 7.476,-20.942 7.072,-42.754 4.041,-64.083 -5.319,-37.433 -27.077,-62.284 -63.152,-73.811 -8.081,-2.582 -16.907,-3.69 -25.428,-3.895 -43.602,-1.05 -87.284,1.795 -130.81,-3.117 -32.564,-3.675 -64.398,-10.56 -95.429,-21.057 -89.743,-30.361 -163.535,-83.287 -221.362,-158.149 -40.452,-52.369 -68.323,-110.992 -83.88,-175.406 -5.93,-24.553 -10.193,-49.343 -11.811,-74.571 -0.533,-8.292 -1.276,-16.571 -1.922,-24.856 h -1 c 0.644,11.452 1.05,22.924 1.981,34.353 2.31,28.325 7.859,56.068 15.681,83.364 20.313,70.875 55.123,133.668 104.693,188.311 34.754,38.312 74.771,69.945 120.034,94.846 65.816,36.209 136.362,55.622 211.476,57.578 32.144,0.837 64.321,0.354 96.481,0.608 4.288,0.035 8.631,0.576 12.843,1.414 40.846,8.129 70.057,43.834 70.834,83.708 0.271,13.925 1.005,28.29 -1.832,41.746 -9.222,43.748 -44.403,71.048 -89.141,71.051 -31.665,0.002 -63.33,0.171 -94.992,-0.048 -30.039,-0.208 -59.812,2.553 -89.225,8.322 -51.456,10.094 -100.039,28.098 -145.339,54.681 -7.196,4.223 -14.32,8.568 -21.708,12.995 -1.257,-4.987 -2.167,-9.526 -3.581,-13.901 -1.102,-3.408 -0.219,-5.058 2.877,-6.989 35.511,-22.137 73.227,-39.454 113.18,-51.798 41.595,-12.85 84.16,-20.472 127.738,-21.137 37.822,-0.576 75.657,-0.199 113.487,-0.341 29.683,-0.113 55.908,-18.301 66.315,-45.755 6.653,-17.554 5.365,-35.937 3.825,-53.825 -3.028,-35.162 -34.168,-62.181 -69.476,-62.183 -22.664,-10e-4 -45.33,-0.124 -67.994,0.03 -30.835,0.21 -61.458,-1.819 -91.91,-6.935 -38.734,-6.508 -76.114,-17.517 -112.029,-33.272 -77.751,-34.108 -142.345,-85.084 -193.589,-152.78 -37.302,-49.277 -64.178,-103.775 -80.877,-163.325 -7.356,-26.231 -12.578,-52.856 -15.471,-79.896 -1.447,-13.534 -1.563,-27.21 -2.281,-40.822 h -2 c 0.314,6.98 0.575,13.965 0.95,20.942 1.696,31.574 6.852,62.621 15.109,93.099 30.014,110.795 90.538,201.256 182.797,269.607 86.226,63.883 183.745,94.801 290.972,95.273 26.162,0.115 52.33,-0.209 78.486,0.225 6.83,0.114 14.004,1.325 20.372,3.739 27.416,10.391 43.102,30.506 45.213,59.792 0.984,13.657 1.19,27.899 -1.561,41.191 -6.539,31.593 -34.849,53.064 -67.151,53.103 -32.33,0.039 -64.661,0.178 -96.989,-0.04 -30.7,-0.207 -61.138,2.558 -91.225,8.331 -58.003,11.129 -112.364,31.948 -162.772,62.872 -2.358,1.446 -4.751,2.836 -7.458,4.449 -1.917,-6.181 -3.655,-11.788 -5.368,-17.313 0.266,-0.393 0.39,-0.755 0.643,-0.921 1.388,-0.908 2.801,-1.779 4.217,-2.644 43.895,-26.788 90.878,-46.24 140.77,-58.509 36.891,-9.071 74.353,-14.202 112.421,-14.261 34.995,-0.053 69.991,-0.044 104.987,-0.134 24.103,-0.063 44.774,-14.594 49.855,-37.269 2.608,-11.636 2.084,-24.121 1.902,-36.206 -0.416,-27.569 -24.809,-49.006 -51.732,-48.44 -25.319,0.532 -50.658,0.148 -75.989,0.105 -33.661,-0.057 -66.985,-3.301 -100.032,-9.881 -55.63,-11.075 -107.827,-31.025 -156.645,-59.807 -49.323,-29.08 -92.481,-65.487 -129.444,-109.267 -30.62,-36.269 -55.678,-76.001 -75.273,-119.212 -17.787,-39.225 -30.367,-80.082 -37.779,-122.475 -4.412,-25.232 -7.366,-50.66 -7.276,-76.349 h -2 c 1.036,15.765 1.444,31.601 3.238,47.28 3.828,33.463 10.86,66.305 21.368,98.347 33.034,100.737 91.014,184.058 175.205,248.592 89.484,68.588 191.11,102.808 303.699,104.597 27.824,0.442 55.662,-0.014 83.493,0.134 19.546,0.104 37,12.081 43.951,30.365 6.105,16.06 5.542,32.911 2.271,49.187 -4.78,23.778 -24.599,38.474 -49.013,38.477 -29.831,0.002 -59.664,0.196 -89.494,-0.052 -32.514,-0.27 -64.74,2.246 -96.768,7.954 -45.449,8.101 -88.932,22.208 -130.392,42.384 -15.909,7.742 -31.269,16.611 -47.116,25.093 -0.917,-2.42 -1.957,-5.15 -2.985,-7.886 -1.083,-2.878 -2.154,-5.76 -3.26,-8.72 2.102,-1.32 3.897,-2.508 5.749,-3.603 48.732,-28.807 100.648,-49.487 156.035,-61.45 31.423,-6.787 63.138,-11.228 95.281,-11.608 37.491,-0.442 74.991,-0.162 112.487,-0.255 17.782,-0.044 29.991,-10.072 32.432,-27.329 0.995,-7.034 0.479,-14.283 0.631,-21.434 C 295.606,15.354 278.809,3.316 262.135,3.33 218.19,3.367 174.1,5.989 130.354,0.327 105.261,-2.921 80.046,-6.785 55.588,-13.094 c -109.516,-28.25 -200.554,-86.348 -273.123,-173.03 -40.957,-48.922 -71.686,-103.831 -92.661,-164.11 -18.387,-52.842 -28.375,-107.237 -29.46,-163.219 h -2 c 0.277,5.559 0.554,11.118 0.812,16.304 -16.765,-3.98 -33.101,-8.013 -49.518,-11.689 -8.357,-1.87 -16.858,-3.098 -25.294,-4.615 h -16 c 0.579,0.284 1.134,0.746 1.74,0.827 10.68,1.422 21.507,2.127 32.02,4.333 18.112,3.801 36.038,8.499 54.012,12.942 1.196,0.296 2.948,1.527 3.062,2.487 0.68,5.714 0.953,11.476 1.421,18.027 -39.221,-13.304 -78.78,-20.066 -119.255,-21.616 v 2 c 20.468,2.109 41.114,3.176 61.351,6.638 18.192,3.111 35.951,8.789 53.849,13.529 1.771,0.47 4.289,2.086 4.564,3.53 1.076,5.646 1.389,11.436 2.07,17.994 -39.644,-14.545 -80.191,-22.033 -121.834,-23.691 v 2 c 14.713,1.317 29.474,2.24 44.127,4.041 25.716,3.16 50.633,9.811 74.961,18.658 1.375,0.5 3.229,1.776 3.462,2.966 1.168,5.962 1.87,12.016 2.853,18.849 -40.693,-16.385 -82.378,-24.701 -125.403,-26.514 v 2 c 8.774,0.635 17.56,1.135 26.319,1.929 33.178,3.006 65.102,11.262 96.106,23.262 1.299,0.503 3.145,1.404 3.415,2.457 1.682,6.572 2.987,13.239 4.596,20.7 -42.251,-18.833 -85.475,-28.376 -130.436,-30.348 v 2 c 16.166,1.669 32.439,2.659 48.476,5.159 27.583,4.299 54.028,12.814 79.564,24.077 1.365,0.602 2.996,1.916 3.371,3.223 1.926,6.709 3.481,13.524 5.356,21.072 -43.501,-22.062 -88.976,-33.321 -136.767,-35.531 v 2 c 13.204,1.315 26.472,2.182 39.6,4.034 33.377,4.71 64.931,15.353 95.03,30.416 1.145,0.573 2.735,1.289 3.069,2.289 2.589,7.739 4.919,15.565 7.602,24.245 -45.474,-26.739 -93.749,-40.464 -145.301,-42.984 v 2 c 11.735,1.074 23.564,1.539 35.186,3.338 35.112,5.436 68.272,16.771 99.661,33.556 7.888,4.219 13.635,9.027 15.768,18.066 1.343,5.691 4.063,11.058 6.397,17.175 -7.305,-4.687 -13.763,-9.054 -20.432,-13.075 -42.016,-25.328 -87.72,-38.459 -136.58,-41.06 v 2 c 11.079,1.035 22.265,1.426 33.22,3.219 44.73,7.321 85.73,23.913 122.503,50.606 1.188,0.863 2.652,1.753 3.232,2.985 5.734,12.188 11.308,24.452 17.35,37.617 -1.554,-1.371 -2.394,-2.071 -3.189,-2.819 -17.406,-16.38 -36.591,-30.286 -57.636,-41.641 -36.064,-19.459 -74.687,-29.618 -115.48,-31.967 v 2 c 10.576,1.045 21.258,1.471 31.711,3.239 50.103,8.476 94.424,29.42 132.703,62.894 8.749,7.651 16.519,15.982 22.513,26.355 10.196,17.643 21.761,34.503 32.991,51.533 4.741,7.192 11.45,13.37 14.918,21.067 11.447,25.409 17.801,52.38 19.947,80.116 2.443,31.582 2.34,63.198 -3.858,94.458 -2.132,10.751 -5.084,21.339 -7.82,32.66 -5.193,-3.841 -9.582,-6.844 -13.63,-10.253 -1.009,-0.849 -1.598,-3.203 -1.222,-4.54 5.143,-18.276 8.131,-36.867 9.08,-55.832 1.35,-26.995 1.234,-53.919 -4.258,-80.512 -16.471,-79.766 -60.789,-138.78 -132.883,-176.613 -31.282,-16.415 -65.039,-24.331 -100.192,-26.572 v 2 c 12.825,1.654 25.808,2.533 38.448,5.098 56.963,11.553 103.868,40.362 140.74,85.008 34.858,42.21 53.49,91.194 56.432,145.792 1.494,27.731 1.2,55.546 -4.682,82.938 -1.464,6.815 -3.301,13.551 -5.081,20.791 -5.866,-3.853 -10.826,-7.111 -14.793,-9.715 2.121,-15.616 4.793,-30.466 6.03,-45.435 2.196,-26.596 2.164,-53.325 -3.361,-79.517 -15.866,-75.22 -58.048,-130.56 -127.111,-164.819 -27.223,-13.504 -56.408,-20 -86.622,-22.141 v 2 c 9.57,1.081 19.255,1.556 28.692,3.342 58.115,11.006 105.349,40.007 141.147,87.093 28.173,37.059 43.546,79.236 45.823,125.598 1.066,21.693 -0.625,43.568 -1.911,65.312 -0.528,8.918 -3.284,17.703 -5.125,27.051 -6.109,-3.496 -11.37,-6.507 -15.87,-9.084 1.536,-11.41 3.571,-22.024 4.289,-32.726 1.86,-27.755 2.524,-55.549 -3.968,-82.901 -17.262,-72.723 -60.465,-123.392 -129.67,-151.748 -20.306,-8.32 -41.674,-12.006 -63.407,-13.937 v 2 c 9.064,1.088 18.249,1.571 27.171,3.363 52.469,10.535 95.154,37.009 127.378,79.809 24.652,32.744 38.534,69.871 41.096,110.674 1.247,19.869 -0.012,39.933 -0.869,59.878 -0.348,8.094 -2.645,16.104 -4.108,24.454 -5.286,-2.621 -9.818,-4.659 -14.098,-7.131 -1.146,-0.662 -2.338,-2.789 -2.134,-4.015 5.424,-32.595 6.632,-65.385 -0.614,-97.63 -15.934,-70.901 -58.911,-118.598 -127.649,-142.123 -14.725,-5.039 -30.748,-6.285 -46.173,-9.279 v 2 c 8.392,1.077 16.903,1.589 25.156,3.325 46.897,9.866 85.047,33.792 113.812,72.218 21.691,28.974 34.034,61.756 36.771,97.747 1.285,16.891 0.594,33.97 0.077,50.942 -0.25,8.195 -2.167,16.337 -3.398,24.982 -6.22,-2.666 -11.63,-4.986 -16.95,-7.267 4.131,-24.96 3.567,-68.816 -0.331,-86.25 -14.402,-64.412 -52.605,-107.822 -114.85,-129.42 -12.841,-4.455 -26.828,-5.604 -40.287,-8.277 v 2 c 4.94,0.644 9.902,1.161 14.818,1.955 44.03,7.102 79.582,28.623 106.864,63.686 29.896,38.424 37.849,82.884 34.716,130.185 -0.554,8.356 -1.596,16.681 -2.465,25.569 -6.451,-2.334 -11.977,-4.333 -17.341,-6.274 2.623,-24.564 4.13,-48.722 -0.585,-72.563 -12.034,-60.837 -48.176,-100.504 -107.273,-118.98 -9.255,-2.894 -19.14,-3.77 -28.734,-5.578 v 2 c 3.134,0.365 6.288,0.608 9.4,1.113 44.551,7.229 79.319,29.602 104.022,67.429 21.546,32.995 25.558,69.8 23.146,107.939 -0.37,5.866 -1.178,11.702 -1.837,18.074 -6.341,-1.881 -11.958,-3.547 -17.465,-5.181 2.358,-21.41 3.514,-42.499 -0.576,-63.113 -10.089,-50.861 -39.783,-85.41 -89.182,-102.135 -8.847,-2.995 -18.323,-4.132 -27.508,-6.126 v 2 c 2.797,0.385 5.617,0.646 8.387,1.174 49.35,9.386 83.144,37.505 101.077,84.425 9.068,23.727 8.073,48.555 7.089,73.31 -0.133,3.357 -0.869,6.691 -1.331,10.071 -6.172,-1.492 -11.599,-2.804 -17.247,-4.171 0.104,-2.129 0.279,-3.936 0.266,-5.741 -0.113,-15.442 1.275,-31.087 -0.721,-46.285 -3.973,-30.242 -18.8,-54.942 -43.505,-73.183 -16.026,-11.833 -33.829,-19.454 -54.015,-20.6 v 1 c 1.121,0.307 2.225,0.722 3.366,0.904 42.338,6.759 71.05,30.446 86.873,70.042 8.981,22.477 6.993,45.994 6.209,69.372 -0.043,1.265 -0.606,2.512 -0.995,4.031 -5.863,-0.994 -11.504,-1.951 -16.453,-2.791 0,-10.537 -0.052,-20.492 0.01,-30.447 0.18,-29.109 -10.445,-53.408 -32.726,-72.225 -13.327,-11.255 -28.687,-18.308 -46.284,-19.886 v 2 c 1.652,0.043 3.357,-0.166 4.947,0.168 26.216,5.522 46.261,19.66 60.216,42.651 14.449,23.804 12.254,49.967 11.422,75.988 -0.009,0.274 -0.361,0.536 -0.902,1.288 -5.374,-0.637 -11.029,-1.308 -17.673,-2.096 0,-14.632 1.312,-28.872 -0.275,-42.782 -3.253,-28.506 -29.531,-53.707 -57.735,-57.217 v 2 c 0.996,0.041 2.032,-0.081 2.984,0.146 21.06,5.052 36.765,17.028 46.919,36.242 10.295,19.481 7.045,40.382 7.086,61.707 -6.285,-0.453 -11.982,-0.863 -17.77,-1.279 0,-9.48 0.48,-18.639 -0.154,-27.721 -0.49,-7.015 -1.358,-14.323 -3.843,-20.818 -6.189,-16.175 -18.796,-25.627 -35.222,-30.277 v 2 c 4.254,1.686 8.497,3.401 12.765,5.053 5.329,2.06 7.071,5.947 5.914,11.366 -0.282,0.157 -0.565,0.445 -0.85,0.448 -5.943,0.065 -11.886,0.096 -17.829,0.133 v 2 h 19.012 c 0.723,6.04 1.402,11.715 2.154,18 h -21.166 v 2 h 21.536 c 0.996,6.283 1.885,11.891 2.852,18 h -24.388 v 2 c 7.326,-0.061 14.654,-0.208 21.977,-0.088 1.137,0.019 2.994,1.055 3.256,1.978 1.458,5.149 2.528,10.408 3.841,16.11 h -29.074 v 2 c 22.112,0.648 44.261,0.71 66.326,2.104 24.245,1.533 47.789,7.372 70.748,15.142 68.548,23.194 124.867,63.614 168.125,121.646 45.719,61.331 68.578,130.615 69.755,207.039 0.303,19.658 -0.031,39.324 0.064,58.986 0.136,27.861 -2.742,55.386 -9.023,82.532 -13.548,58.55 -40.291,110.361 -80.278,155.168 -33.114,37.103 -72.554,65.736 -118.072,85.894 -32.503,14.394 -66.425,23.975 -101.783,27.188 -21.844,1.984 -43.901,1.614 -65.862,2.301 v 2 c 2.826,-0.073 5.67,0.023 8.476,-0.254 6.904,-0.68 12.403,1.183 18.116,5.754 12.991,10.393 28.386,14.866 45.093,13.902 5.58,-0.322 12.1,-3.577 16.391,-1.596 4.309,1.99 6.381,8.832 9.414,13.559 0.162,0.253 0.145,0.621 0.25,1.113 -1.167,0.479 -2.319,1.079 -3.542,1.438 -23.377,6.858 -45.827,4.665 -67.496,-6.587 -10.355,-5.376 -18.466,-13.39 -26.702,-21.329 v 3 c 1.817,1.649 3.661,3.27 5.447,4.953 15.624,14.719 33.938,23.371 55.472,25.238 13.116,1.137 25.731,-0.841 38.241,-5.014 3.526,5.144 6.928,10.107 10.544,15.383 -30.978,11.971 -60.732,11.111 -89.806,-3.43 -6.924,-3.463 -13.281,-8.056 -19.898,-12.13 v 2 c 1.64,1.109 3.29,2.205 4.919,3.33 21.34,14.735 44.872,22.176 70.82,19.642 11.889,-1.161 23.585,-4.287 36.16,-6.671 2.816,3.586 6.484,8.257 10.357,13.191 -1.44,0.74 -2.558,1.39 -3.735,1.909 -15.203,6.712 -31.213,10.167 -47.736,10.433 -25.472,0.41 -49.128,-6.308 -70.785,-19.834 v 2 c 39.952,23.807 81.225,25.668 123.77,7.28 4.025,4.628 7.988,9.185 12.325,14.173 -46.001,21.851 -91.084,22.035 -136.095,-0.453 v 2 c 1.784,0.859 3.558,1.738 5.353,2.574 24.973,11.623 51.233,15.995 78.564,13.222 17.424,-1.767 34.069,-6.67 49.849,-14.397 1.295,-0.634 3.642,-1.226 4.361,-0.576 4.238,3.831 8.139,8.035 12.417,12.382 -30.391,16.266 -61.765,23.789 -95.549,20.918 -19.189,-1.631 -37.518,-6.088 -54.995,-14.123 v 2 c 27.083,12.218 55.525,16.595 84.961,13.782 22.292,-2.13 43.405,-8.661 63.174,-19.357 1.384,-0.749 3.903,-1.441 4.775,-0.749 4.369,3.468 8.365,7.406 13.425,12.031 -10.229,4.866 -19.408,9.791 -29.003,13.69 -28.499,11.582 -58.198,15.581 -88.771,12.42 -16.687,-1.725 -32.847,-5.934 -48.561,-11.817 v 2 c 1.569,0.49 3.159,0.924 4.705,1.478 31.307,11.22 63.411,13.885 96.105,8.296 22.229,-3.8 43.08,-11.689 62.647,-22.972 1.566,-0.903 4.416,-1.628 5.568,-0.836 4.479,3.083 8.514,6.812 12.934,10.482 -1.741,1.156 -3.21,2.192 -4.738,3.136 -29.453,18.203 -61.413,28.443 -96.008,30.719 -27.894,1.835 -54.91,-2.018 -81.213,-11.303 v 2 c 35.289,12.216 71.337,14.771 107.947,7.776 25.976,-4.963 50.105,-14.867 72.527,-28.943 1.341,-0.841 3.881,-1.361 5.018,-0.661 4.611,2.843 8.892,6.222 13.516,9.562 -0.967,0.831 -1.649,1.543 -2.446,2.085 -15.823,10.775 -32.625,19.684 -50.659,26.15 -29.709,10.651 -60.242,15.494 -91.863,13.257 -18.447,-1.304 -36.499,-4.32 -54.04,-10.226 v 2 c 72.111,21.567 138.947,9.877 201.186,-31.866 5.143,3.312 10.417,6.708 15.949,10.27 -14.258,11.007 -29.281,20.109 -45.325,27.44 -37.482,17.127 -76.716,24.999 -118.015,22.377 -18.303,-1.162 -36.216,-4.092 -53.795,-9.221 v 2 c 14.628,2.73 29.179,6.025 43.904,8.061 22.739,3.144 45.52,1.754 68.023,-2.365 38.249,-7.001 73.128,-22.008 104.374,-45.314 1.153,-0.861 3.531,-1.231 4.759,-0.635 4.87,2.362 9.51,5.199 14.692,8.116 -1.37,1.267 -2.359,2.331 -3.493,3.207 -46.341,35.818 -98.819,54.729 -157.325,56.679 -25.379,0.846 -50.327,-2.65 -74.934,-8.749 v 2 c 0.827,0.062 1.687,0 2.477,0.206 17.72,4.621 35.714,7.141 54.024,7.98 35.447,1.627 69.753,-3.731 103.066,-15.79 27.37,-9.907 52.362,-24.063 75.229,-42.041 1.18,-0.928 3.147,-2.267 4.081,-1.866 5.503,2.367 10.808,5.193 16.656,8.102 -3.811,3.187 -6.92,5.921 -10.174,8.471 -3.528,2.765 -7.158,5.402 -10.799,8.018 -34.995,25.149 -73.649,41.66 -116.137,49.072 -7.794,1.36 -15.615,2.569 -23.423,3.848 h 15 c 7.086,-1.466 14.206,-2.788 21.254,-4.422 46.368,-10.753 87.744,-31.457 124.05,-62.287 1.029,-0.874 3.088,-1.517 4.24,-1.097 5.359,1.954 10.567,4.321 17.404,7.204 -1.677,0.807 -2.573,1.012 -3.159,1.554 -16.298,15.055 -34.008,28.254 -53.415,38.952 -13.154,7.251 -26.895,13.435 -40.374,20.096 h 5 c 0.31,-0.331 0.558,-0.812 0.941,-0.972 33.408,-13.966 63.434,-33.212 90.189,-57.602 0.845,-0.77 2.483,-1.497 3.424,-1.202 5.754,1.808 11.415,3.917 18.305,6.35 -2.488,2.079 -4.235,3.613 -6.058,5.051 -15.123,11.927 -30.142,23.99 -45.45,35.674 -6.118,4.669 -12.882,8.492 -19.351,12.701 h 3 c 24.437,-14.918 47.561,-31.551 67.909,-51.832 0.622,-0.62 1.867,-1.214 2.609,-1.017 5.991,1.585 11.93,3.363 18.342,5.215 -1.271,1.389 -2.136,2.363 -3.031,3.308 -15.715,16.601 -33.485,30.799 -51.829,44.326 h 3 c 18.593,-13.705 36.389,-28.33 52.299,-45.149 0.825,-0.872 2.312,-1.895 3.287,-1.719 6.112,1.102 12.167,2.525 18.994,4.006 -14.049,15.87 -28.839,29.855 -44.58,42.862 h 3 c 13.615,-13.111 27.284,-26.169 40.794,-39.388 2.178,-2.131 4.099,-3.298 7.27,-2.676 5.295,1.04 10.675,1.643 16.962,2.569 -4.987,5.684 -9.379,11.011 -14.115,16.014 -7.517,7.941 -15.262,15.665 -22.911,23.481 h 3 c 11.691,-12.632 23.371,-25.275 35.108,-37.864 0.597,-0.641 1.701,-1.212 2.535,-1.168 6.51,0.347 13.01,0.852 20.457,1.375 -5.251,6.358 -9.799,12.02 -14.516,17.537 -5.787,6.77 -11.717,13.419 -17.584,20.12"
             style="fill:#000000;fill-opacity:1;fill-rule:nonzero;stroke:none"
             id="path22"
             inkscape:connector-curvature="0" /></g><g
           id="g24"
           transform="translate(480,28)"><path
             d="m 0,0 c 1.324,31.836 10.856,61.201 27.586,88.116 29.631,47.673 72.445,76.534 127.326,87.679 4.38,0.89 8.916,1.059 13.257,2.08 2.895,0.682 5.825,1.91 8.287,3.565 3.29,2.214 6.093,5.141 9.197,7.646 2.957,2.387 6.034,4.625 10.145,7.757 -6.716,0 -12.264,0.302 -17.77,-0.047 C 130.042,193.756 87.554,176.828 51.649,144.814 16.11,113.126 -6.381,73.656 -14.977,26.639 -16.58,17.868 -17.022,8.885 -18,0 h -2 c 1.505,34.105 11.173,65.862 28.557,95.096 30.761,51.73 75.832,84.394 134.224,98.548 17,4.121 34.41,5.43 51.922,5.412 2.614,-0.003 5.484,0.961 7.799,2.256 8.643,4.839 17.103,10.002 26.118,15.33 -1.182,0.146 -2.039,0.356 -2.893,0.342 -19.974,-0.337 -40.032,0.334 -59.901,-1.293 C 135.251,213.187 106.287,204.057 79.595,188.852 19.293,154.501 -18.387,103.112 -33.591,35.485 -36.193,23.911 -36.586,11.841 -38,0 h -2 c 1.779,36.384 11.498,70.544 29.663,102.081 34.086,59.175 84.76,96.36 151.235,111.462 14.463,3.285 29.592,3.635 44.414,5.335 0.165,0.018 0.333,0.005 0.5,0.005 13.824,0.017 27.648,0.133 41.471,0.025 14.248,-0.111 25.991,8.14 39.225,11.556 33.137,8.554 66.352,10.848 100.104,4.822 1.974,-0.352 4.284,0.244 6.253,0.927 45.832,15.899 86.353,40.481 121.194,74.317 0.578,0.562 1.291,0.984 1.941,1.47 v -3 c -0.92,-0.633 -1.942,-1.158 -2.745,-1.915 -32.647,-30.776 -69.977,-54.031 -111.976,-69.801 -2.34,-0.879 -4.685,-1.744 -7.646,-2.845 8.883,-2.568 16.914,-5.084 25.063,-7.123 2.286,-0.572 5.2,-0.39 7.357,0.538 33.039,14.213 62.822,33.598 89.947,57.146 v -3 c -1.232,-0.782 -2.581,-1.43 -3.68,-2.367 -24.924,-21.272 -52.353,-38.574 -82.225,-52.026 -1.403,-0.63 -2.725,-1.442 -4.568,-2.429 6.497,-2.811 12.283,-5.602 18.296,-7.761 2.163,-0.776 5.27,-0.841 7.273,0.142 23.176,11.372 44.675,25.423 64.904,41.441 v -3 c -0.868,-0.396 -1.819,-0.671 -2.591,-1.205 -11.464,-7.934 -22.698,-16.225 -34.418,-23.759 -9.278,-5.964 -19.146,-11.009 -28.911,-16.552 5.234,-2.958 10.409,-5.62 15.283,-8.752 2.309,-1.483 3.959,-1.603 6.232,-0.136 14.764,9.526 29.595,18.948 44.405,28.404 v -3 c -14.9,-9.422 -29.801,-18.844 -45.013,-28.461 4.355,-3.083 8.904,-6.035 13.12,-9.402 2.101,-1.679 3.514,-1.551 5.647,-0.21 8.685,5.46 17.487,10.732 26.246,16.073 v -2 c -9.051,-5.625 -18.102,-11.25 -27.43,-17.048 2.976,-2.561 5.592,-4.824 8.219,-7.073 6.251,-5.353 6.237,-5.324 13.149,-1.138 1.959,1.188 4.038,2.178 6.062,3.259 v -2 c -3.758,-2.147 -7.517,-4.296 -11.897,-6.799 4.353,-4.098 8.125,-7.65 11.897,-11.201 v -3 c -15.021,15.875 -31.392,30.112 -50.137,41.496 -27.985,16.995 -58.093,27.857 -90.692,31.616 C 288.521,242.8 229.531,224.605 178.92,181.013 139.734,147.26 115.295,104.313 104.9,53.478 101.286,35.806 100.061,17.97 100,0 h -2 c 1.269,17.797 2.537,35.595 3.769,52.881 C 90.355,37.629 83.466,19.713 81,0 h -2 c 0.28,1.131 0.673,2.246 0.822,3.395 2.467,18.966 9.742,35.925 20.956,51.357 2.162,2.975 3.662,6.584 4.808,10.114 2.927,9.018 5.481,18.156 8.429,28.072 C 82.752,69.027 65.377,38.22 61,0 h -2 c 0.292,1.294 0.699,2.574 0.86,3.885 4.055,33.025 18.405,60.929 43.613,82.416 8.883,7.571 15.633,15.666 19.961,26.237 1.556,3.8 3.773,7.33 6.282,12.119 C 105.115,113.425 85.766,97.985 70.457,77.463 53.278,54.434 43.924,28.442 41,0 h -2 c 1.158,6.846 1.933,13.783 3.536,20.523 11.603,48.795 40.138,83.921 85.509,105.366 1.594,0.754 3.388,1.69 4.354,3.059 5.241,7.428 10.25,15.02 15.337,22.551 -0.076,0.045 -0.221,0.201 -0.344,0.187 -0.471,-0.058 -0.945,-0.136 -1.401,-0.268 C 90.019,135.239 51.772,99.813 30.967,45.458 25.36,30.807 22.899,15.465 21,0 h -1 c 0.957,7.708 1.206,15.583 2.979,23.098 15.866,67.226 56.994,110.672 123.334,130.157 1.56,0.458 3.466,0.78 4.486,1.853 6.373,6.708 12.54,13.613 19.674,21.439 -8.932,-1.66 -16.835,-2.591 -24.443,-4.624 C 71.982,152.133 25.52,104.757 6.126,30.83 3.494,20.796 2.664,10.288 1,0 Z"
             style="fill:#000000;fill-opacity:1;fill-rule:nonzero;stroke:none"
             id="path26"
             inkscape:connector-curvature="0" /></g><g
           id="g28"
           transform="translate(25,507)"><path
             d="m 0,0 c 19.975,0.354 40.042,-0.381 59.904,1.298 37.791,3.193 74.052,13.163 108.111,29.948 88.231,43.481 146.245,112.718 174.352,206.897 8.686,29.104 12.734,58.986 12.645,89.401 -0.063,21.83 0.249,43.664 -0.06,65.49 -0.995,70.26 -22.075,134.076 -63.489,190.736 C 248.306,642.814 191.366,682.989 121.278,704.3 92.176,713.148 62.354,717.368 31.995,717.946 21.333,718.149 10.665,717.993 0,718 v 2 c 14.813,-0.314 29.63,-0.485 44.438,-0.973 35.302,-1.162 69.304,-8.743 102.133,-21.551 48.828,-19.05 90.807,-48.038 125.781,-87.17 41.924,-46.909 68.372,-101.45 79.243,-163.235 3.439,-19.544 4.418,-39.62 5.209,-59.505 0.853,-21.458 0.609,-42.987 0.074,-64.466 -1.795,-72.095 -23.643,-137.499 -67.4,-195.001 C 240.616,63.89 176.334,23.213 97.717,5.267 68.853,-1.323 39.501,-2.75 9.998,-2.013 6.667,-1.93 3.333,-2.001 0,-2 Z"
             style="fill:#000000;fill-opacity:1;fill-rule:nonzero;stroke:none"
             id="path30"
             inkscape:connector-curvature="0" /></g><g
           id="g32"
           transform="translate(25,527)"><path
             d="m 0,0 c 19.636,0.354 39.381,-0.478 58.886,1.306 42.756,3.91 83.081,16.614 120.252,38.263 74.948,43.652 123.543,107.65 146.122,191.347 6.909,25.61 10.053,51.738 9.841,78.293 -0.195,24.323 0.586,48.67 -0.249,72.966 -1.451,42.242 -11.294,82.702 -30.062,120.597 -43.934,88.71 -114.242,144.834 -210.542,167.951 -22.682,5.444 -45.902,7.403 -69.259,7.282 C 16.66,677.962 8.33,678 0,678 v 2 c 14.648,-0.307 29.302,-0.471 43.944,-0.952 30.924,-1.015 60.789,-7.483 89.787,-18.07 45.74,-16.701 85.435,-42.765 118.679,-78.278 40.88,-43.669 67.176,-94.974 78.711,-153.773 3.851,-19.626 5.957,-39.4 5.88,-59.404 -0.097,-25.494 0.808,-51.038 -0.471,-76.472 C 333.305,228.913 312.358,170.88 273.329,119.721 231.435,64.805 176.977,28.089 110.62,9.088 79.385,0.145 47.416,-2.965 14.998,-2.021 10.003,-1.875 5,-2 0,-2 Z"
             style="fill:#000000;fill-opacity:1;fill-rule:nonzero;stroke:none"
             id="path34"
             inkscape:connector-curvature="0" /></g><g
           id="g36"
           transform="translate(25,547)"><path
             d="m 0,0 c 22.271,0.705 44.741,-0.219 66.774,2.453 46.019,5.58 88.251,22.285 125.995,49.384 62.963,45.204 101.998,105.995 117.333,182.011 3.764,18.658 5.27,37.496 5.205,56.49 -0.085,24.987 0.526,50.004 -0.485,74.954 -1.393,34.404 -9.222,67.625 -23.403,99.013 -37.945,83.987 -101.17,139.024 -190.084,164.053 -22.969,6.465 -46.523,9.213 -70.349,9.597 C 20.66,638.121 10.329,637.994 0,638 v 2 c 13.985,-0.277 27.976,-0.399 41.955,-0.862 36.253,-1.201 71.024,-9.367 103.795,-24.667 85.671,-39.999 140.071,-106.17 163.343,-197.828 5.542,-21.827 8.074,-44.047 7.97,-66.582 -0.104,-22.664 0.231,-45.333 -0.1,-67.993 -0.645,-44.151 -10.9,-86.158 -31.25,-125.248 C 243.591,75.907 177.685,25.081 88.848,4.266 62.769,-1.845 36.165,-2.623 9.5,-2.028 6.334,-1.958 3.167,-2.007 0,-2 Z"
             style="fill:#000000;fill-opacity:1;fill-rule:nonzero;stroke:none"
             id="path38"
             inkscape:connector-curvature="0" /></g><g
           id="g40"
           transform="translate(25,567)"><path
             d="m 0,0 c 21.61,0.687 43.411,-0.198 64.791,2.391 44.442,5.383 84.89,22.097 120.855,48.843 54.712,40.69 89.433,94.63 103.848,161.2 3.529,16.296 5.307,33.202 5.755,49.884 0.778,28.959 1.141,58.037 -0.591,86.93 -2.569,42.841 -15.619,82.907 -38.171,119.533 -37.75,61.309 -91.425,101.593 -161.009,120.465 -21.106,5.724 -42.66,8.318 -64.485,8.705 C 20.665,598.134 10.331,597.994 0,598 v 2 c 14.649,-0.309 29.308,-0.37 43.944,-0.978 30.114,-1.251 59.13,-7.878 86.74,-19.833 83.171,-36.011 135.801,-98.412 158.902,-185.805 4.755,-17.988 7.363,-36.437 7.421,-55.113 0.091,-28.984 1.092,-58.023 -0.331,-86.939 -1.996,-40.58 -13.3,-78.943 -33.374,-114.404 C 223.779,67.112 164.681,23.043 86.787,4.314 68.687,-0.037 50.181,-2.146 31.485,-2.014 20.991,-1.939 10.495,-2 0,-2 Z"
             style="fill:#000000;fill-opacity:1;fill-rule:nonzero;stroke:none"
             id="path42"
             inkscape:connector-curvature="0" /></g><g
           id="g44"
           transform="translate(25,587)"><path
             d="m 0,0 c 18.634,0.355 37.389,-0.509 55.876,1.324 36.091,3.578 69.856,15.137 100.687,34.44 62.771,39.302 100.836,95.733 115.093,168.19 2.425,12.326 3.746,25.04 3.94,37.6 0.421,27.133 0.532,54.313 -0.595,81.417 -1.977,47.568 -17.33,90.919 -44.852,129.686 -37.995,53.517 -89.3,86.966 -153.654,100.439 C 51.188,558.394 25.608,558.101 0,558 v 2 c 14.317,-0.311 28.644,-0.409 42.951,-0.979 29.154,-1.161 57.154,-7.807 83.679,-19.784 77.369,-34.938 125.572,-94.257 144.932,-176.653 3.766,-16.025 5.131,-32.852 5.588,-49.365 0.774,-27.957 1.027,-56.017 -0.493,-83.926 -1.83,-33.574 -11.053,-65.617 -26.813,-95.414 C 212.22,62.746 153.695,19.002 75.085,2.207 50.323,-3.084 25.114,-2.095 0,-2 Z"
             style="fill:#000000;fill-opacity:1;fill-rule:nonzero;stroke:none"
             id="path46"
             inkscape:connector-curvature="0" /></g><g
           id="g48"
           transform="translate(976,474)"><path
             d="m 0,0 c -5.238,-9.706 -9.976,-19.724 -15.796,-29.066 -38.304,-61.489 -92.789,-100.305 -163.879,-114.811 -15.679,-3.199 -31.923,-4.438 -47.956,-4.91 -26.633,-0.783 -53.309,0.084 -79.96,-0.268 -88.199,-1.164 -162.974,-33.753 -223.455,-97.804 -41.06,-43.484 -66.536,-95.418 -77.65,-154.152 -2.801,-14.801 -3.59,-29.982 -5.304,-44.989 h -2 c 0.648,6.424 1.354,12.842 1.934,19.271 2.943,32.612 11.315,63.842 24.373,93.787 18.274,41.899 44.469,78.204 78.797,108.397 41.87,36.823 90.209,60.802 145.013,71.591 21.622,4.258 43.454,5.92 65.456,5.901 26.998,-0.023 54.014,-0.566 80.992,0.184 48.188,1.34 92.16,16.216 131.717,43.743 38.897,27.068 67.511,62.648 86.535,106.002 C -0.859,3.614 -0.397,4.293 0,5 Z"
             style="fill:#000000;fill-opacity:1;fill-rule:nonzero;stroke:none"
             id="path50"
             inkscape:connector-curvature="0" /></g><g
           id="g52"
           transform="translate(25,607)"><path
             d="m 0,0 c 18.301,0.358 36.734,-0.552 54.875,1.341 37.415,3.903 71.813,17.041 102.608,38.76 50.622,35.702 81.861,84.329 94.145,144.88 2.79,13.755 3.749,28.012 4.192,42.081 0.676,21.469 0.632,42.986 0.076,64.462 -1.69,65.351 -25.845,120.953 -73.615,165.854 -32.817,30.845 -71.832,49.536 -116.057,57.425 C 44.31,518.711 22.131,518.088 0,518 v 2 c 14.147,-0.319 28.306,-0.383 42.439,-1.007 34.599,-1.525 67.048,-11.156 96.993,-28.243 60.429,-34.481 98.098,-86.198 113.129,-154.008 3.21,-14.487 4.646,-29.592 4.945,-44.451 0.563,-27.964 0.853,-56.028 -0.866,-83.919 C 254.629,175.769 244.902,144.9 228.703,116.42 195.162,57.451 145.471,19.415 79.312,3.934 64.076,0.369 48.155,-0.581 32.478,-1.835 21.716,-2.695 10.831,-2 0,-2 Z"
             style="fill:#000000;fill-opacity:1;fill-rule:nonzero;stroke:none"
             id="path54"
             inkscape:connector-curvature="0" /></g><g
           id="g56"
           transform="translate(976,432)"><path
             d="m 0,0 c -12.909,-19.86 -27.559,-38.283 -44.945,-54.447 -36.317,-33.764 -78.656,-56.019 -127.127,-66.58 -21.055,-4.588 -42.357,-6.237 -63.884,-6.028 -24.495,0.238 -48.998,0.357 -73.489,-0.004 -65.255,-0.958 -123.842,-21.275 -175.034,-61.888 -54.068,-42.895 -88.117,-98.569 -102.995,-165.761 -3.569,-16.122 -4.423,-32.845 -6.526,-49.292 h -2 c 1.819,26.197 5.824,51.985 13.948,77.057 12.001,37.036 30.326,70.52 55.681,100.112 41.425,48.345 93.237,79.661 155.101,94.366 21.582,5.131 43.559,7.293 65.714,7.411 27.155,0.146 54.314,-0.198 81.466,0.105 57.783,0.644 109.674,18.88 155.902,53.327 26.705,19.899 48.629,44.268 66.33,72.461 C -1.358,1.635 -0.625,2.283 0,3 Z"
             style="fill:#000000;fill-opacity:1;fill-rule:nonzero;stroke:none"
             id="path58"
             inkscape:connector-curvature="0" /></g><g
           id="g60"
           transform="translate(25,627)"><path
             d="m 0,0 c 17.971,0.359 36.086,-0.596 53.882,1.358 34.881,3.829 66.784,16.505 95.211,37.255 45.394,33.135 73.001,77.694 83.562,132.702 2.212,11.519 2.93,23.433 3.204,35.191 0.496,21.317 0.359,42.656 0.097,63.981 -0.614,50.109 -16.828,94.622 -48.98,133.093 C 154.86,442.005 113.821,465.423 64.727,474.774 43.324,478.85 21.631,478.009 0,478 v 2 c 13.808,-0.302 27.627,-0.356 41.422,-0.958 29.261,-1.275 56.893,-9.042 82.67,-22.744 59.158,-31.446 95.439,-80.473 109.498,-145.734 2.882,-13.38 3.765,-27.328 4.231,-41.06 0.689,-20.298 0.304,-40.638 0.158,-60.958 C 237.237,105.587 165.27,20.799 68.584,1.771 47.472,-2.385 26.261,-1.94 4.997,-1.999 3.331,-2.004 1.666,-2 0,-2 Z"
             style="fill:#000000;fill-opacity:1;fill-rule:nonzero;stroke:none"
             id="path62"
             inkscape:connector-curvature="0" /></g><g
           id="g64"
           transform="translate(976,397)"><path
             d="m 0,0 c -10.722,-11.562 -20.855,-23.744 -32.275,-34.568 -35.531,-33.679 -77.378,-56.202 -124.759,-68.447 -24.583,-6.352 -49.577,-9.207 -74.973,-9.026 -25.996,0.186 -52.003,0.441 -77.992,-0.037 -66.717,-1.231 -125.301,-23.836 -175.04,-68.439 -45.159,-40.496 -72.918,-91.05 -84.558,-150.4 -2.451,-12.501 -2.986,-25.379 -4.403,-38.083 h -2 c 3.48,60.688 23.616,115.104 62.7,161.812 41.346,49.411 93.88,80.649 157.45,92.149 16.764,3.033 33.98,4.324 51.034,4.811 27.31,0.781 54.664,-0.121 81.99,0.297 61.899,0.948 117.425,20.689 166.984,57.592 C -34.609,-36.528 -16.535,-17.544 0,3 Z"
             style="fill:#000000;fill-opacity:1;fill-rule:nonzero;stroke:none"
             id="path66"
             inkscape:connector-curvature="0" /></g><g
           id="g68"
           transform="translate(25,647)"><path
             d="m 0,0 c 22.947,-0.226 45.914,-1.235 68.575,3.968 38.339,8.802 70.97,27.406 97.618,56.363 25.523,27.734 41.207,60.385 47.461,97.438 1.706,10.11 2.146,20.512 2.285,30.792 0.313,23.161 0.789,46.356 -0.101,69.488 -1.452,37.745 -13.691,72.101 -36.049,102.557 -29.186,39.757 -68.267,64.36 -116.575,74.131 C 42.342,438.958 21.129,438.007 0,438 v 2 c 13.314,-0.273 26.643,-0.234 39.938,-0.881 34.285,-1.668 65.705,-12.436 93.932,-31.759 44.656,-30.568 71.849,-72.74 81.089,-126.116 1.917,-11.074 2.664,-22.441 2.913,-33.696 0.452,-20.482 0.461,-40.989 0.06,-61.474 C 217.047,140.884 202.429,100.623 173.376,65.85 144.748,31.586 108.236,10.432 64.663,1.28 46.614,-2.511 28.296,-2.191 9.997,-2.023 6.665,-1.993 3.333,-2.007 0,-2 Z"
             style="fill:#000000;fill-opacity:1;fill-rule:nonzero;stroke:none"
             id="path70"
             inkscape:connector-curvature="0" /></g><g
           id="g72"
           transform="translate(976,366)"><path
             d="m 0,0 c -6.764,-6.618 -13.348,-13.432 -20.321,-19.822 -41.162,-37.725 -89.032,-62.526 -143.648,-74.301 -22.183,-4.783 -44.593,-7.007 -67.278,-6.904 -26.16,0.118 -52.327,0.394 -78.481,-0.047 -58.499,-0.989 -110.545,-19.947 -155.473,-57.578 -43.341,-36.304 -70.933,-82.431 -83.284,-137.456 -3.072,-13.687 -3.741,-27.913 -5.515,-41.892 h -2 c 2.733,50.303 18.448,96.135 48.343,136.713 36.595,49.672 85.249,81.516 145.271,95.83 18.819,4.487 37.996,6.325 57.325,6.394 26.831,0.095 53.663,-0.146 80.491,0.101 63.791,0.588 121.57,19.841 173.634,56.528 C -32.219,-29.244 -15.415,-13.897 0,3 Z"
             style="fill:#000000;fill-opacity:1;fill-rule:nonzero;stroke:none"
             id="path74"
             inkscape:connector-curvature="0" /></g><g
           id="g76"
           transform="translate(25,667)"><path
             d="m 0,0 c 15.96,0.315 31.996,-0.235 47.865,1.134 29.778,2.568 56.575,13.729 80.369,31.682 37.42,28.235 59.292,65.937 66.496,112.102 1.327,8.496 1.421,17.238 1.464,25.87 0.115,23.149 0.706,46.337 -0.391,69.438 -1.531,32.225 -12.452,61.588 -31.365,87.71 C 138.701,363.484 104.04,385.637 61.158,394.77 40.98,399.066 20.442,397.961 0,398 v 2 c 13.648,-0.306 27.321,-0.199 40.94,-1 32.333,-1.904 61.562,-12.972 87.489,-32.123 36.925,-27.275 59.036,-64.049 67.31,-109.082 1.493,-8.128 2.059,-16.515 2.164,-24.794 0.29,-22.821 0.449,-45.655 0.037,-68.473 C 197.27,127.386 185.448,93.901 162.853,64.467 136.015,29.504 100.586,7.857 57.231,0.528 41.136,-2.192 24.427,-1.293 7.997,-2.002 5.336,-2.116 2.666,-2.006 0,-2 Z"
             style="fill:#000000;fill-opacity:1;fill-rule:nonzero;stroke:none"
             id="path78"
             inkscape:connector-curvature="0" /></g><g
           id="g80"
           transform="translate(25,687)"><path
             d="m 0,0 c 13.826,0.024 27.722,-0.834 41.462,0.26 27.184,2.163 52.061,11.51 73.985,27.823 32.814,24.418 52.415,57.137 59.303,97.373 1.314,7.669 1.79,15.563 1.811,23.356 0.063,23.151 0.219,46.321 -0.615,69.449 -1.031,28.583 -10.759,54.464 -27.374,77.622 C 125.225,328.424 93.63,348.84 54.24,355.367 36.502,358.306 18.101,357.246 0,358 v 2 c 13.485,-0.32 26.995,-0.226 40.45,-1.046 28.234,-1.722 53.687,-11.56 76.326,-28.317 33.666,-24.918 53.287,-58.536 59.969,-99.711 1.192,-7.346 1.338,-14.915 1.375,-22.384 0.112,-23.331 0.788,-46.704 -0.331,-69.984 C 176.317,107.957 165.554,80.357 146.695,56.104 121.758,24.032 88.923,4.935 48.882,-0.573 32.826,-2.781 16.308,-1.625 0,-2 Z"
             style="fill:#000000;fill-opacity:1;fill-rule:nonzero;stroke:none"
             id="path82"
             inkscape:connector-curvature="0" /></g><g
           id="g84"
           transform="translate(25,808)"><path
             d="M 0,0 C 5.589,0.033 11.237,-0.428 16.755,0.214 25.14,1.19 33.479,2.717 41.758,4.404 51.247,6.337 57.987,16.75 56.58,27.131 38.114,21.415 19.228,18.219 0,17 v 2 c 18.505,0.675 36.548,4.087 54.255,9.35 1.251,0.372 2.973,1.956 3.037,3.059 0.314,5.435 0.143,10.898 0.143,17.037 C 38.361,41.887 19.387,38.353 0,37 v 2 c 18.634,0.819 36.729,4.526 54.4,10.356 1.227,0.405 2.83,2.054 2.895,3.201 0.305,5.432 0.136,10.891 0.136,17.161 C 38.506,62.456 19.498,58.557 0,57 v 2 c 18.618,1.038 36.651,4.917 54.066,11.514 1.474,0.558 3.078,2.872 3.208,4.485 0.412,5.099 0.152,10.252 0.152,16.33 C 38.598,83.177 19.612,78.757 0,77 v 2 c 19.783,1.415 38.761,5.979 57.144,14.314 -0.802,2.286 -1.367,4.329 -2.216,6.246 -4.173,9.415 -5.129,9.238 -14.907,6.555 C 26.84,102.497 13.355,99.986 0,97 v 2 c 15.875,1.472 31.285,4.724 46.508,11.597 -5.891,4.397 -11.729,6.315 -18.155,6.37 C 18.902,117.049 9.451,116.996 0,117 v 2 c 11.294,-0.317 22.65,0 33.865,-1.112 13.779,-1.367 25.05,-14.636 25.122,-28.472 C 59.098,68.275 59.088,47.133 58.983,25.992 58.911,11.578 46.268,-2.246 31.828,-2.832 21.247,-3.261 10.611,-2.327 0,-2 Z"
             style="fill:#000000;fill-opacity:1;fill-rule:nonzero;stroke:none"
             id="path86"
             inkscape:connector-curvature="0" /></g><g
           id="g88"
           transform="translate(976,158)"><path
             d="m 0,0 c -22.46,30.433 -50.466,54.075 -85.272,69.276 -31.438,13.73 -64.198,19.585 -98.546,16.912 -42.645,-3.318 -80.678,-18.195 -113.853,-45 -38.406,-31.03 -62.784,-70.914 -73.392,-119.195 -3.767,-17.144 -5.094,-34.491 -4.937,-51.993 h -2 c 0.973,13.256 1.256,26.606 3.051,39.75 4.854,35.53 18.572,67.587 40.313,96.037 33.331,43.619 77.275,70.649 131.266,79.831 58.557,9.959 112.05,-3.7 159.972,-38.787 C -26.625,34.55 -12.374,19.682 0,3 Z"
             style="fill:#000000;fill-opacity:1;fill-rule:nonzero;stroke:none"
             id="path90"
             inkscape:connector-curvature="0" /></g><g
           id="g92"
           transform="translate(638,28)"><path
             d="m 0,0 c -0.966,39.889 9.156,76.54 32.929,108.823 26.975,36.635 62.891,59.827 107.929,67.108 62.945,10.174 115.731,-9.827 157.643,-57.383 21.731,-24.657 34.477,-53.987 38.66,-86.804 0.077,-0.607 0.55,-1.164 0.839,-1.744 0,-9.333 0.021,-18.667 -0.043,-28 -0.005,-0.669 -0.624,-1.333 -0.957,-2 1.717,42.701 -10.558,80.998 -37.267,114.268 -25.821,32.166 -59.266,52.367 -99.979,59.695 -49.915,8.985 -95.021,-2.608 -134.627,-34.047 C 32.688,114.165 12.555,80.435 5.175,39.663 2.824,26.676 2.987,13.234 2,0 Z"
             style="fill:#000000;fill-opacity:1;fill-rule:nonzero;stroke:none"
             id="path94"
             inkscape:connector-curvature="0" /></g><g
           id="g96"
           transform="translate(976,120)"><path
             d="m 0,0 c -6.072,9.621 -11.529,19.703 -18.322,28.785 -29.949,40.038 -69.451,65.35 -118.997,73.153 -68.697,10.82 -126.395,-10.658 -172.628,-62.355 -24.157,-27.012 -38.267,-59.121 -43.774,-94.792 -1.867,-12.093 -1.581,-24.518 -2.279,-36.791 h -2 c -0.576,39.432 8.169,76.475 29.612,109.843 30.627,47.659 73.839,77.408 129.977,86.078 67.215,10.381 124.055,-10.746 170.447,-60.285 C -17.339,32.291 -8.798,19.459 -1.436,5.81 -1.076,5.143 -0.484,4.601 0,4 Z"
             style="fill:#000000;fill-opacity:1;fill-rule:nonzero;stroke:none"
             id="path98"
             inkscape:connector-curvature="0" /></g><g
           id="g100"
           transform="translate(25,707)"><path
             d="m 0,0 c 15.304,0.315 30.712,-0.39 45.888,1.172 26.371,2.712 49.218,14.141 68.73,32.002 21.392,19.583 34.641,43.84 39.944,72.295 1.425,7.645 2.095,15.519 2.213,23.302 0.304,19.994 0.268,39.997 0.072,59.993 C 156.269,247.799 118.2,298.016 61.9,313.236 51.28,316.107 40.022,316.989 28.986,317.845 19.377,318.589 9.666,318 0,318 v 2 c 13.139,-0.318 26.304,-0.222 39.412,-1.042 25.93,-1.623 48.979,-11.156 69.26,-27.198 26.374,-20.862 42.138,-48.213 48.015,-81.196 1.275,-7.158 1.604,-14.559 1.637,-21.852 0.105,-22.814 0.442,-45.65 -0.397,-68.437 C 156.887,92.037 146.476,66.981 128.613,45.241 107.628,19.703 80.42,4.296 47.837,-0.595 35.268,-2.481 22.287,-1.644 9.493,-2.002 6.331,-2.091 3.165,-2.006 0,-2 Z"
             style="fill:#000000;fill-opacity:1;fill-rule:nonzero;stroke:none"
             id="path102"
             inkscape:connector-curvature="0" /></g><g
           id="g104"
           transform="translate(955,28)"><path
             d="m 0,0 c 1.999,36.758 -8.308,69.816 -30.574,98.977 -23.155,30.324 -53.816,49.423 -91.345,55.568 -53.039,8.683 -98.39,-7.281 -135.012,-46.775 C -277.338,85.761 -289.209,59.38 -293.653,29.847 -295.127,20.052 -294.608,9.957 -295,0 h -2 c -1.294,35.136 7.499,67.453 28.197,95.982 24.885,34.3 58.453,54.861 100.536,61.093 C -93.546,168.14 -21.529,119.948 -2.479,45.442 1.337,30.517 2.598,15.354 2,0 Z"
             style="fill:#000000;fill-opacity:1;fill-rule:nonzero;stroke:none"
             id="path106"
             inkscape:connector-curvature="0" /></g><g
           id="g108"
           transform="translate(25,727)"><path
             d="m 0,0 c 11.654,-0.006 23.334,-0.52 34.957,0.083 30.412,1.577 55.608,14.396 75.42,37.313 18.571,21.481 26.868,46.842 26.632,75.156 -0.153,18.315 -0.046,36.633 -0.023,54.949 0.065,52.591 -34.983,96.675 -86.267,108.069 -6.92,1.538 -14.14,2.053 -21.25,2.333 C 19.66,278.289 9.824,278 0,278 v 2 c 12.972,-0.313 25.98,-0.116 38.908,-1.047 24.18,-1.744 45.191,-11.487 63.118,-27.579 20.309,-18.229 31.83,-41.305 35.803,-68.187 0.679,-4.59 0.86,-9.285 0.883,-13.934 0.099,-20.154 0.208,-40.311 0.032,-60.464 C 138.284,56.224 103.822,12.866 52.653,0.707 45.613,-0.967 38.233,-1.59 30.977,-1.891 20.667,-2.32 10.327,-2 0,-2 Z"
             style="fill:#000000;fill-opacity:1;fill-rule:nonzero;stroke:none"
             id="path110"
             inkscape:connector-curvature="0" /></g><g
           id="g112"
           transform="translate(976,1185)"><path
             d="m 0,0 c -24.32,0.937 -47.314,-3.646 -67.859,-17.249 -28.502,-18.871 -45.998,-45.267 -48.901,-79.396 -2.041,-23.988 -0.998,-48.243 -1.22,-72.38 -0.155,-16.86 3.402,-33.013 11.024,-48.005 17.083,-33.599 44.051,-54.209 81.601,-59.892 8.315,-1.259 16.896,-0.765 25.355,-1.078 v -2 c -24.158,-1.348 -46.967,3.277 -67.491,16.421 -30.705,19.663 -49.058,47.761 -51.32,84.18 -1.749,28.152 -2.441,56.734 0.372,84.725 4.558,45.338 37.143,81.203 80.498,92.364 C -25.734,0.833 -12.671,0.655 0,2 Z"
             style="fill:#000000;fill-opacity:1;fill-rule:nonzero;stroke:none"
             id="path114"
             inkscape:connector-curvature="0" /></g><g
           id="g116"
           transform="translate(936,28)"><path
             d="m 0,0 c -0.345,17.478 -1.648,34.818 -7.979,51.352 -17.318,45.222 -49.52,73.972 -96.99,83.247 -68.38,13.359 -132.851,-31.167 -148.107,-97.521 C -255.891,24.836 -256.892,12.507 -256,0 h -2 c -1.657,35.02 8.326,66.279 31.079,93.013 20.679,24.297 46.996,39.14 78.636,43.987 38.471,5.893 72.839,-3.979 102.719,-28.566 C -21.642,88.747 -6.708,63.221 -1.205,32.722 0.724,22.029 0.332,10.919 1,0 Z"
             style="fill:#000000;fill-opacity:1;fill-rule:nonzero;stroke:none"
             id="path118"
             inkscape:connector-curvature="0" /></g><g
           id="g120"
           transform="translate(25,747)"><path
             d="m 0,0 c 10.825,-0.031 21.662,-0.388 32.474,-0.034 38.492,1.257 72.267,28.525 81.408,65.989 1.907,7.818 2.812,16.034 2.982,24.092 0.416,19.813 0.139,39.641 0.136,59.464 -0.009,42.769 -31.795,80.805 -74.145,87.097 C 28.811,238.694 14.298,237.626 0,238 v 2 c 12.48,-0.294 25.047,0.245 37.424,-1.042 33.341,-3.467 57.383,-20.966 72.428,-50.729 6.461,-12.781 9.068,-26.623 9.128,-40.906 0.08,-18.832 0.022,-37.665 0.02,-56.498 C 118.992,45.313 89.858,8.576 45.301,-0.297 33.071,-2.732 20.12,-1.562 7.499,-2.007 5.002,-2.095 2.5,-2.007 0,-2 Z"
             style="fill:#000000;fill-opacity:1;fill-rule:nonzero;stroke:none"
             id="path122"
             inkscape:connector-curvature="0" /></g><g
           id="g124"
           transform="translate(943.8281,999.2041)"><path
             d="M 0,0 C 4.97,-7.812 11.877,-12.266 21.532,-11.348 Z M 32.172,73.796 C 22.333,78.002 12.496,82.216 2.65,86.409 0.704,87.238 -1.279,87.985 -4.536,89.285 -5.253,83.265 -6.083,77.8 -6.398,72.307 -6.457,71.275 -4.661,69.698 -3.382,69.099 8.427,63.574 20.31,58.208 32.172,52.796 v -2 c -12.53,5.886 -25.059,11.772 -38.726,18.192 0,-7.039 -0.083,-12.749 0.086,-18.451 0.027,-0.885 1.018,-2.131 1.881,-2.54 C 7.634,42.195 19.909,36.51 32.172,30.796 v -2 c -9.525,4.524 -19.039,9.07 -28.579,13.56 -3.084,1.452 -6.236,2.758 -10.14,4.475 0,-6.498 -0.109,-12.254 0.102,-17.999 0.038,-1.015 1.2,-2.399 2.2,-2.906 12.1,-6.12 24.267,-12.108 36.417,-18.13 v -2 C 19.636,12.16 7.1,18.524 -6.062,25.208 -7.087,17.748 -6.686,11.139 -3.808,4.873 c 0.599,-1.305 2.302,-2.265 3.694,-3.014 7.58,-4.074 15.125,-8.236 22.893,-11.923 2.831,-1.344 6.245,-1.462 9.393,-2.14 v -2 c -9.653,-0.209 -19.27,-0.585 -27.633,5.778 -7.601,5.783 -12.23,13.222 -12.369,22.744 -0.3,20.48 0.176,40.973 -0.286,61.447 -0.36,15.902 11.849,31.433 31.322,31.766 2.989,0.051 5.977,0.175 8.966,0.265 v -3 C 26.126,104.137 20.088,103.402 14.034,102.836 6.039,102.09 1.023,97.502 -2.567,90.713 10.83,83.979 10.828,83.998 23.822,85.885 c 2.769,0.403 5.566,0.613 8.35,0.911 v -2 L 17.194,83.453 17.192,82.29 c 4.994,-2.498 9.987,-4.996 14.98,-7.494 z"
             style="fill:#000000;fill-opacity:1;fill-rule:nonzero;stroke:none"
             id="path126"
             inkscape:connector-curvature="0" /></g><g
           id="g128"
           transform="translate(976,1165)"><path
             d="m 0,0 c -21.435,0.916 -41.695,-2.925 -59.463,-15.641 -24.664,-17.65 -37.909,-41.673 -38.464,-72.137 -0.382,-20.965 -0.073,-41.942 -0.073,-62.913 0.001,-42.498 32.149,-80.11 74.167,-86.271 C -16.006,-238.11 -7.95,-237.694 0,-238 v -2 c -21.837,-1.262 -42.297,2.912 -60.467,15.675 -22.25,15.629 -36.26,36.842 -38.311,63.994 -1.789,23.68 -1.073,47.559 -1.167,71.351 -0.062,15.694 3.687,30.601 11.582,44.2 17.541,30.213 44.234,45.231 78.872,46.671 C -6.331,2.021 -3.164,1.968 0,2 Z"
             style="fill:#000000;fill-opacity:1;fill-rule:nonzero;stroke:none"
             id="path130"
             inkscape:connector-curvature="0" /></g><g
           id="g132"
           transform="translate(840.3335,71.8232)"><path
             d="M 0,0 C -22.758,21.389 -56.659,13.918 -69.341,-4.592 -46.096,-5.479 -23.266,-4.688 0,0 m 13.16,-17.762 c -3.317,5.135 -5.854,9.605 -8.988,13.609 -1.038,1.326 -3.764,2.304 -5.458,1.998 -22.352,-4.043 -44.829,-5.621 -67.514,-4.239 -1.163,0.071 -3.019,-0.294 -3.46,-1.075 -2.853,-5.047 -5.403,-10.264 -8.444,-16.191 32.256,-2.769 62.58,-0.989 93.864,5.898 m -32.493,-26.061 c 8.116,1.334 16.24,2.627 24.347,4.019 3.535,0.608 7.036,1.421 11.251,2.283 -0.838,6.082 -1.617,11.729 -2.474,17.947 -31.474,-6.668 -62.448,-8.982 -95.124,-5.888 v -18.361 h -2 c -0.623,13.203 1.431,25.684 9.137,36.885 11.359,16.507 32.738,25.206 51.81,20.819 20.5,-4.716 35.86,-20.595 39.046,-40.867 0.869,-5.529 0.7,-11.22 1.007,-16.837 h -2 v 4.312 c -7.397,-1.518 -14.199,-2.916 -21,-4.312 z"
             style="fill:#000000;fill-opacity:1;fill-rule:nonzero;stroke:none"
             id="path134"
             inkscape:connector-curvature="0" /></g><g
           id="g136"
           transform="translate(916,28)"><path
             d="M 0,0 C 0.387,22.65 -3.719,44.227 -15.674,63.816 -33.419,92.892 -59.165,110.77 -92.777,115.74 -150.634,124.296 -202.5,85.759 -213.875,31.155 -215.992,20.994 -216.012,10.396 -217,0 h -1 c -4.73,56.603 35.423,107.737 91.971,117.122 57.962,9.62 113.808,-28.863 124.941,-86.496 C 0.85,20.593 1.016,10.218 2,0 Z"
             style="fill:#000000;fill-opacity:1;fill-rule:nonzero;stroke:none"
             id="path138"
             inkscape:connector-curvature="0" /></g><g
           id="g140"
           transform="translate(25,767)"><path
             d="m 0,0 c 10.66,-0.035 21.333,-0.434 31.977,-0.035 29.864,1.119 55.727,22.25 62.898,51.333 1.298,5.265 1.988,10.804 2.048,16.226 0.23,20.823 0.146,41.65 0.074,62.475 -0.118,33.77 -25.436,62.899 -59.116,66.918 C 25.389,198.408 12.635,197.703 0,198 v 2 c 12.135,-0.293 24.327,0.058 36.395,-1.008 29.333,-2.589 54.338,-24.982 60.53,-53.769 1.281,-5.951 1.906,-12.141 1.984,-18.231 C 99.155,107.684 99.003,88.371 99,69.06 98.993,32.625 72.181,2.061 35.933,-1.74 24.077,-2.983 11.984,-1.978 0,-2 Z"
             style="fill:#000000;fill-opacity:1;fill-rule:nonzero;stroke:none"
             id="path142"
             inkscape:connector-curvature="0" /></g><g
           id="g144"
           transform="translate(976,1145)"><path
             d="m 0,0 c -16.95,0.778 -33.179,-1.631 -47.449,-11.583 -19.004,-13.254 -29.966,-31.352 -30.487,-54.722 -0.515,-23.125 -1.091,-46.327 0.194,-69.393 1.616,-29.021 23.481,-55.222 54.445,-61.137 7.564,-1.446 15.521,-0.832 23.297,-1.165 v -2 c -19.004,-1.265 -36.787,2.206 -52.104,14.201 -17.755,13.904 -27.421,32.2 -27.82,54.844 -0.36,20.48 -0.076,40.972 -0.076,61.458 0,39.778 31.171,71.092 71.014,71.35 C -5.991,1.873 -2.995,1.95 0,2 Z"
             style="fill:#000000;fill-opacity:1;fill-rule:nonzero;stroke:none"
             id="path146"
             inkscape:connector-curvature="0" /></g><g
           id="g148"
           transform="translate(896,28)"><path
             d="m 0,0 c 0.967,23.521 -4.702,45.082 -19.658,63.588 -14.909,18.447 -34.141,29.291 -57.86,32.532 -43.809,5.986 -86.824,-23.211 -96.919,-68.442 C -176.438,18.708 -176.204,9.238 -177,0 h -2 c 0.483,13.269 0.949,26.55 5.964,39.116 13.765,34.488 38.909,54.591 75.904,58.944 44.404,5.224 90.04,-25.733 97.921,-77.155 C 1.842,14.036 1.627,6.973 2,0 Z"
             style="fill:#000000;fill-opacity:1;fill-rule:nonzero;stroke:none"
             id="path150"
             inkscape:connector-curvature="0" /></g><g
           id="g152"
           transform="translate(25,787)"><path
             d="m 0,0 c 10.81,-0.006 21.628,-0.285 32.428,0.038 22.958,0.685 44.09,21.775 44.507,44.839 0.405,22.451 0.395,44.92 0.002,67.372 -0.38,21.642 -18.122,41.932 -39.62,44.567 C 25.015,158.324 12.448,157.677 0,158 v 2 c 11.967,-0.323 23.992,-0.017 35.888,-1.11 20.263,-1.863 38.501,-19.384 42.064,-39.516 0.662,-3.737 0.994,-7.579 1.012,-11.375 C 79.06,88.181 79.02,68.363 79,48.545 78.972,20.292 56.733,-1.941 28.428,-2.015 18.952,-2.04 9.476,-2.007 0,-2 Z"
             style="fill:#000000;fill-opacity:1;fill-rule:nonzero;stroke:none"
             id="path154"
             inkscape:connector-curvature="0" /></g><g
           id="g156"
           transform="translate(976,1125)"><path
             d="m 0,0 c -9.161,0.232 -18.405,0.415 -26.991,-3.281 -19.663,-8.465 -30.777,-23.425 -31.25,-44.969 -0.486,-22.128 -0.38,-44.295 0.352,-66.417 0.731,-22.121 21.853,-42.456 43.927,-43.335 4.646,-0.185 9.307,-0.008 13.962,0.002 v -2 c -14.082,-0.887 -27.605,0.635 -39.292,9.52 -13.059,9.927 -20.515,22.948 -20.683,39.537 -0.21,20.825 0.085,41.655 -0.104,62.481 -0.229,25.275 20.136,49.445 50.095,50.268 C -6.657,1.897 -3.328,1.937 0,2 Z"
             style="fill:#000000;fill-opacity:1;fill-rule:nonzero;stroke:none"
             id="path158"
             inkscape:connector-curvature="0" /></g><g
           id="g160"
           transform="translate(876,28)"><path
             d="M 0,0 C 1,18.314 -2.669,35.376 -14.32,49.976 -31.571,71.59 -54.241,80.835 -81.305,75.543 -109.351,70.06 -127.297,52.223 -134.707,24.682 -136.823,16.818 -136.309,8.247 -137,0 h -2 c -0.438,17.845 2.665,34.8 13.686,49.372 17.37,22.967 40.729,33.229 68.981,28.069 C -26.511,71.996 -7.439,53.362 -0.172,23.74 1.7,16.108 1.336,7.928 2,0 Z"
             style="fill:#000000;fill-opacity:1;fill-rule:nonzero;stroke:none"
             id="path162"
             inkscape:connector-curvature="0" /></g><g
           id="g164"
           transform="translate(862,1484)"><path
             d="M 0,0 C 13.118,-3.205 26.127,-6.98 39.377,-9.491 64.002,-14.156 88.854,-17.2 114,-17 v -2 C 73.53,-18.348 33.937,-11.927 -4.953,-0.896 -5.354,-0.782 -5.653,-0.307 -6,0 Z"
             style="fill:#000000;fill-opacity:1;fill-rule:nonzero;stroke:none"
             id="path166"
             inkscape:connector-curvature="0" /></g><g
           id="g168"
           transform="translate(25,1478)"><path
             d="M 0,0 C 7.913,1.671 15.827,3.331 23.734,5.025 24.842,5.263 25.913,5.671 27,6 H 42 C 33.515,4.666 25.021,3.379 16.546,1.981 11.017,1.07 5.515,0 0,-1 Z"
             style="fill:#000000;fill-opacity:1;fill-rule:nonzero;stroke:none"
             id="path170"
             inkscape:connector-curvature="0" /></g></g></g></g></svg>